<?xml version="1.0" encoding="UTF-8" standalone="no"?>
<!-- Created with Inkscape (http://www.inkscape.org/) -->

<svg
   xmlns:dc="http://purl.org/dc/elements/1.1/"
   xmlns:cc="http://creativecommons.org/ns#"
   xmlns:rdf="http://www.w3.org/1999/02/22-rdf-syntax-ns#"
   xmlns:svg="http://www.w3.org/2000/svg"
   xmlns="http://www.w3.org/2000/svg"
   xmlns:sodipodi="http://sodipodi.sourceforge.net/DTD/sodipodi-0.dtd"
   xmlns:inkscape="http://www.inkscape.org/namespaces/inkscape"
   version="1.1"
   id="svg815"
   width="50"
   height="50"
   viewBox="0 0 50 50"
   sodipodi:docname="download.svg"
   inkscape:version="0.92.4 (5da689c313, 2019-01-14)">
  <metadata
     id="metadata821">
    <rdf:RDF>
      <cc:Work
         rdf:about="">
        <dc:format>image/svg+xml</dc:format>
        <dc:type
           rdf:resource="http://purl.org/dc/dcmitype/StillImage" />
        <dc:title></dc:title>
      </cc:Work>
    </rdf:RDF>
  </metadata>
  <defs
     id="defs819" />
  <sodipodi:namedview
     pagecolor="#ffffff"
     bordercolor="#666666"
     borderopacity="1"
     objecttolerance="10"
     gridtolerance="10"
     guidetolerance="10"
     inkscape:pageopacity="0"
     inkscape:pageshadow="2"
     inkscape:window-width="1920"
     inkscape:window-height="986"
     id="namedview817"
     showgrid="false"
     inkscape:zoom="2"
     inkscape:cx="177.76948"
     inkscape:cy="113.75"
     inkscape:window-x="-11"
     inkscape:window-y="-11"
     inkscape:window-maximized="1"
     inkscape:current-layer="svg815" />
  <g
     id="g2001"
     transform="translate(-3e-7,2.0000101)">
    <g
       transform="matrix(0.04942373,0,0,0.04721574,3.075374,4.82071)"
       id="g1452">
      <path
         style="opacity:1;fill:none;fill-opacity:1;fill-rule:nonzero;stroke:#0a0000;stroke-width:6.62734985;stroke-linecap:butt;stroke-linejoin:round;stroke-miterlimit:4;stroke-dasharray:none;stroke-dashoffset:0;stroke-opacity:1"
         d="m 124.92213,673.33629 c -1.49248,-0.56352 -3.7195,-1.73674 -4.94893,-2.60715 -1.22943,-0.87041 -2.70487,-1.58257 -3.27875,-1.58257 -0.57389,0 -3.11511,-2.24623 -5.64716,-4.99163 -7.88797,-8.55258 -7.52757,-4.78486 -7.82688,-81.82357 -0.30262,-77.89058 0.12668,-91.78449 3.00923,-97.39277 1.95831,-3.8101 9.57304,-12.03056 11.14407,-12.03056 0.46191,0 1.94246,-0.81344 3.29011,-1.80764 1.52571,-1.12556 5.0095,-2.13871 9.23272,-2.68505 3.98513,-0.51554 45.05849,-0.88893 99.58794,-0.90534 l 92.80552,-0.0279 33.79998,33.70441 c 19.40464,19.34976 36.05011,35.18507 39.0832,37.18097 2.90575,1.91211 7.7891,4.49111 10.8519,5.7311 3.06278,1.24 6.22493,2.58618 7.02697,2.99153 3.75974,1.90013 13.21746,2.90508 23.21182,2.46642 11.49787,-0.50464 17.92058,-2.34429 28.13887,-8.05978 6.05771,-3.38832 4.24949,-1.69101 44.62173,-41.88494 l 32.31928,-32.17654 97.45136,0.2495 97.45136,0.24949 5.87811,3.03539 c 7.76889,4.01176 12.86951,9.0875 15.92692,15.84924 l 2.50145,5.53215 -0.0406,79.12844 -0.0406,79.12844 -2.24543,4.97379 c -2.92333,6.47538 -8.95805,12.58914 -15.68802,15.89349 l -5.38749,2.64517 -304.75754,0.12026 c -225.07889,0.0888 -305.467,-0.14762 -307.47113,-0.90433 z M 585.5954,635.13757 c 7.37017,-3.07947 15.45448,-15.06741 15.45448,-22.91693 0,-7.18653 -7.47707,-18.67837 -14.46199,-22.22731 -4.74795,-2.41236 -14.43975,-2.84109 -19.60782,-0.8674 -4.18442,1.59805 -11.68301,8.12961 -13.73491,11.96363 -2.08088,3.88815 -2.80885,10.73396 -1.76912,16.63664 0.91706,5.20626 1.45172,6.12686 6.52165,11.22936 5.01067,5.04286 7.32851,6.39444 13.66162,7.96638 2.77605,0.68904 10.33178,-0.2784 13.93609,-1.78437 z m 81.01804,0.46286 c 4.38814,-1.34005 12.16138,-9.28042 14.11286,-14.4163 3.49659,-9.2023 1.58476,-18.65224 -5.18211,-25.61439 -5.50044,-5.65918 -8.62703,-7.12137 -16.2906,-7.61853 -5.58392,-0.36226 -7.11016,-0.10579 -11.30406,1.89948 -5.29091,2.52979 -8.918,5.32342 -8.918,6.86875 0,0.542 -0.42983,0.98545 -0.95518,0.98545 -0.52535,0 -1.82097,1.933 -2.87918,4.29555 -2.56936,5.73636 -2.60917,14.53056 -0.0911,20.12123 1.97666,4.3886 7.33885,10.16223 11.45522,12.33415 5.31121,2.80238 13.15702,3.25023 20.05214,1.14461 z"
         id="path848"
         inkscape:connector-curvature="0" />
      <path
         style="opacity:1;fill:none;fill-opacity:1;fill-rule:nonzero;stroke:#0a0000;stroke-width:7.32850409;stroke-linecap:butt;stroke-linejoin:round;stroke-miterlimit:4;stroke-dasharray:none;stroke-dashoffset:0;stroke-opacity:1"
         d="m 350.15152,98.922195 -0.25876,-27.75 c -0.1765,-18.92794 0.11292,-29.040459 0.91038,-31.809168 1.65511,-5.746331 6.62926,-12.851879 11.50893,-16.440429 8.10757,-5.96237 8.55334,-6.000403 70.3299,-6.000403 53.90723,0 56.50734,0.08469 61.64784,2.008 7.63664,2.85723 13.04281,7.894972 16.91617,15.763321 l 3.292,6.687372 0.0768,90.020662 c 0.0422,49.51136 0.15473,99.35815 0.25,110.77065 l 0.1732,20.75 h 57.38517 c 50.29466,0 58.0083,0.20125 62.42838,1.62878 6.87967,2.22188 11.52721,6.32843 14.87289,13.14163 3.66587,7.46524 3.81498,16.50021 0.38204,23.14885 -1.57073,3.04205 -33.49017,35.6369 -102.42515,104.59242 -55.07883,55.09523 -101.46927,101.02877 -103.08985,102.07451 -4.50509,2.90709 -13.90879,3.34701 -20.57658,0.96263 -4.61677,-1.65096 -7.75407,-4.17915 -19.9769,-16.09843 C 366.4599,455.76676 216.85111,305.42064 215.02882,302.4721 c -7.30049,-11.81244 -2.72536,-28.94286 9.67699,-36.23304 l 4.79217,-2.81686 60.18018,-0.2868 60.18018,-0.28681 -0.18018,-81.21319 -0.18018,-81.2132"
         id="path850"
         inkscape:connector-curvature="0"
         sodipodi:nodetypes="cscsssscsscscscsccsccccccc" />
    </g>
    <text
       transform="scale(0.94358913,1.0597833)"
       id="text4430"
       y="42.823147"
       x="-1.0559282"
       style="font-style:normal;font-weight:normal;font-size:1.87733209px;line-height:1.17333257px;font-family:sans-serif;letter-spacing:0px;word-spacing:0px;fill:#000000;fill-opacity:1;stroke:none;stroke-width:0.0469333"
       xml:space="preserve"><tspan
         style="font-size:9.01119423px;stroke-width:0.0469333"
         y="42.823147"
         x="-1.0559282"
         id="tspan4428"
         sodipodi:role="line">DOWNLOAD</tspan></text>
  </g>
</svg>
