<?xml version="1.0" encoding="UTF-8" standalone="no"?>
<!-- Created with Inkscape (http://www.inkscape.org/) -->

<svg
   xmlns:dc="http://purl.org/dc/elements/1.1/"
   xmlns:cc="http://creativecommons.org/ns#"
   xmlns:rdf="http://www.w3.org/1999/02/22-rdf-syntax-ns#"
   xmlns:svg="http://www.w3.org/2000/svg"
   xmlns="http://www.w3.org/2000/svg"
   xmlns:sodipodi="http://sodipodi.sourceforge.net/DTD/sodipodi-0.dtd"
   xmlns:inkscape="http://www.inkscape.org/namespaces/inkscape"
   version="1.1"
   id="svg815"
   width="3685.3333"
   height="320"
   viewBox="0 0 3685.3333 319.99999"
   sodipodi:docname="footer.svg"
   inkscape:version="0.92.4 (5da689c313, 2019-01-14)">
  <metadata
     id="metadata821">
    <rdf:RDF>
      <cc:Work
         rdf:about="">
        <dc:format>image/svg+xml</dc:format>
        <dc:type
           rdf:resource="http://purl.org/dc/dcmitype/StillImage" />
        <dc:title></dc:title>
      </cc:Work>
    </rdf:RDF>
  </metadata>
  <defs
     id="defs819" />
  <sodipodi:namedview
     pagecolor="#ffffff"
     bordercolor="#666666"
     borderopacity="1"
     objecttolerance="10"
     gridtolerance="10"
     guidetolerance="10"
     inkscape:pageopacity="0"
     inkscape:pageshadow="2"
     inkscape:window-width="1920"
     inkscape:window-height="986"
     id="namedview817"
     showgrid="false"
     units="mm"
     inkscape:zoom="0.35355339"
     inkscape:cx="1642.235"
     inkscape:cy="913.54321"
     inkscape:window-x="-11"
     inkscape:window-y="-11"
     inkscape:window-maximized="1"
     inkscape:current-layer="svg815" />
  <path
     style="fill:none;fill-opacity:1;stroke:#ff6600;stroke-width:8.93858242;stroke-linecap:butt;stroke-linejoin:miter;stroke-miterlimit:4;stroke-dasharray:none;stroke-opacity:1"
     d="m 17.833234,315.2369 218.867136,-10.0204 -3.12553,-57.041 98.22774,-26.9645 -3.85207,-77.0413 36.59465,-5.7781 -5.7781,-100.1538 13.48224,-15.4083 15.40827,11.5562 5.7781,98.2278 28.89051,-1.9261 -9.63017,-102.0798 13.48224,-7.7041 11.55621,5.7781 7.70413,94.3757 38.52068,13.4822 v 48.1508 h 78.9674 v 111.71 l 313.94356,-9.6301 1.92603,-34.6687 21.18638,-13.4822 30.81655,-5.7781 26.96447,5.7781 19.26039,15.4083 9.6301,21.1864 173.34305,1.926 7.7041,-38.5207 86.6716,1.926 19.2603,17.3343 1.926,19.2604 h 337.056 l 5.7781,-28.8905 80.8934,-3.8521 v -36.5946 l 159.8609,-15.4083 5.7781,-121.3402 h 57.781 l 9.6302,115.5621 34.6686,-1.9261 -3.8521,-42.3727 52.0029,3.8521 v 48.1508 l 34.6686,5.7781 -1.926,-28.8905 53.929,-3.8521 1.926,26.9645 44.2988,-1.926 1.926,-67.4112 67.4112,-3.8521 9.6302,57.781 102.0798,1.9261 -11.5562,-165.639 84.7455,11.5563 -3.8521,182.9732 129.0443,1.926 v 46.2248 l 388.5765,-5.1294 729.8786,52.3103"
     id="path825"
     inkscape:connector-curvature="0"
     sodipodi:nodetypes="ccccccccccccccccccccccccccccccccccccccccccccccccccccccccccc" />
</svg>
