<?xml version="1.0" encoding="UTF-8" standalone="no"?>
<!-- Created with Inkscape (http://www.inkscape.org/) -->

<svg
   xmlns:dc="http://purl.org/dc/elements/1.1/"
   xmlns:cc="http://creativecommons.org/ns#"
   xmlns:rdf="http://www.w3.org/1999/02/22-rdf-syntax-ns#"
   xmlns:svg="http://www.w3.org/2000/svg"
   xmlns="http://www.w3.org/2000/svg"
   xmlns:sodipodi="http://sodipodi.sourceforge.net/DTD/sodipodi-0.dtd"
   xmlns:inkscape="http://www.inkscape.org/namespaces/inkscape"
   version="1.1"
   id="svg915"
   width="864"
   height="690"
   viewBox="0 0 864 690"
   sodipodi:docname="project.svg"
   inkscape:version="0.92.4 (5da689c313, 2019-01-14)">
  <metadata
     id="metadata921">
    <rdf:RDF>
      <cc:Work
         rdf:about="">
        <dc:format>image/svg+xml</dc:format>
        <dc:type
           rdf:resource="http://purl.org/dc/dcmitype/StillImage" />
        <dc:title></dc:title>
      </cc:Work>
    </rdf:RDF>
  </metadata>
  <defs
     id="defs919" />
  <sodipodi:namedview
     pagecolor="#ffffff"
     bordercolor="#666666"
     borderopacity="1"
     objecttolerance="10"
     gridtolerance="10"
     guidetolerance="10"
     inkscape:pageopacity="0"
     inkscape:pageshadow="2"
     inkscape:window-width="1920"
     inkscape:window-height="986"
     id="namedview917"
     showgrid="false"
     inkscape:zoom="0.34202899"
     inkscape:cx="21.216102"
     inkscape:cy="345"
     inkscape:window-x="-11"
     inkscape:window-y="-11"
     inkscape:window-maximized="1"
     inkscape:current-layer="svg915" />
  <path
     style="opacity:1;fill:none;fill-opacity:1;fill-rule:nonzero;stroke:#000000;stroke-width:13.95318794;stroke-linecap:butt;stroke-linejoin:round;stroke-miterlimit:4;stroke-dasharray:none;stroke-dashoffset:0;stroke-opacity:0.9859813"
     d="m 128.82698,490.09389 c -8.38629,-5.57965 -14.66884,-16.69519 -14.82115,-26.22251 -0.0946,-5.92434 1.85806,-10.54617 12.62356,-29.87896 5.10275,-9.16364 20.68437,-33.16746 36.45471,-56.15954 7.46115,-10.87773 13.56564,-20.10307 13.56564,-20.50073 0,-0.39766 9.98014,-15.83769 22.17816,-34.31117 12.19794,-18.47348 26.88788,-41.02874 32.64433,-50.12276 17.94868,-28.35556 36.08082,-56.35271 50.95348,-78.67547 7.87077,-11.81336 15.5005,-23.36994 16.95508,-25.68128 1.45451,-2.31134 7.18267,-11.42529 12.72923,-20.25323 5.54656,-8.82794 11.87839,-18.45841 14.07087,-21.40106 2.19241,-2.94266 9.42045,-14.19257 16.06222,-24.99983 24.10823,-39.228025 52.94611,-80.638858 58.82642,-84.473899 7.54915,-4.923438 22.36307,-5.11242 32.3756,-0.413018 6.44711,3.025976 24.48799,23.001666 24.48799,27.114242 0,0.755007 7.43309,12.705593 16.51796,26.556856 9.08487,13.85126 21.22344,32.406969 26.9746,41.234909 5.75117,8.82793 12.2506,18.45841 14.44323,21.40105 2.19263,2.94264 6.84992,9.93518 10.34955,15.53896 3.49961,5.60377 11.23131,17.78534 17.18154,27.07015 5.95022,9.28483 15.62543,24.44239 21.5005,33.6835 11.223,17.65315 22.8088,35.35792 60.01116,91.70573 12.43402,18.83293 25.35803,39.05694 28.72007,44.94223 3.362,5.8853 7.8334,12.62662 9.93642,14.98074 2.10301,2.35413 5.86934,7.92685 8.36958,12.38386 2.50022,4.45702 12.08848,19.60295 21.30722,33.65762 28.11802,42.86808 30.82701,47.6587 30.78993,54.44884 -0.0485,8.89222 -8.22953,22.48445 -17.08615,28.3878 l -7.31912,4.87851 H 417.90434 136.17904 Z m 506.5275,-57.17152 c -0.002,-0.58853 -3.89554,-6.61773 -8.65417,-13.39823 -4.75861,-6.78049 -8.65203,-12.78085 -8.65203,-13.3341 0,-1.95303 -15.89401,-25.71012 -17.67131,-26.41364 -0.9912,-0.39237 -1.80216,-1.58631 -1.80216,-2.65324 0,-1.06696 -4.62495,-8.81867 -10.27766,-17.22608 -5.65272,-8.40741 -12.22501,-18.39047 -14.6051,-22.18458 -7.05628,-11.24841 -9.99378,-13.93555 -15.23401,-13.93555 -9.36204,0 -11.84821,2.64137 -22.88012,24.30836 -6.0779,11.93716 -11.39213,22.06847 -11.80945,22.51401 -1.00961,1.07793 -71.74242,-41.0398 -79.4101,-47.28462 -5.29808,-4.31494 -6.63136,-8.14982 -11.37207,-32.7094 -7.79753,-40.3954 -14.77043,-48.66901 -48.09218,-57.06299 -29.74402,-7.49276 -45.56335,-3.31009 -60.02964,15.87192 -17.57769,23.30759 -16.92688,25.32744 14.06977,43.67011 12.49242,7.3925 28.49268,17.08178 35.55628,21.53173 7.06352,4.44995 14.9729,9.05386 17.57635,10.23092 5.43702,2.45816 27.98105,16.30267 53.27686,32.71787 9.59157,6.22424 21.08067,13.4471 25.53136,16.0508 26.49407,15.49931 36.74536,22.03767 36.7821,23.45992 0.0228,0.8828 -8.47819,1.63571 -18.89109,1.67314 -12.40079,0.0445 -20.25296,1.0591 -22.75989,2.94062 -3.41739,2.56484 -14.56425,26.17967 -14.56425,30.85465 0,1.01572 41.38079,1.75715 91.95731,1.6476 50.57653,-0.10955 91.95636,-0.6807 91.9552,-1.26922 z M 304.26604,430.8051 c 4.29157,-2.27173 12.72996,-25.13926 18.54191,-50.24745 1.89854,-8.20206 4.12861,-16.10882 4.9557,-17.57058 1.53117,-2.70616 7.28221,0.33279 34.25068,18.09864 l 11.18526,7.36844 1.50475,18.48891 c 1.72099,21.14423 4.57804,25.97931 15.35145,25.97931 5.83637,0 7.82916,-1.23762 10.63548,-6.60526 2.92613,-5.59674 3.14995,-9.99634 1.46609,-28.81547 -1.17929,-13.1801 -3.22057,-23.69635 -5.0206,-25.86545 -2.48221,-2.99114 -16.49751,-12.55609 -38.73464,-26.43509 -1.78508,-1.11412 -12.83055,-8.3863 -24.54553,-16.1604 -11.71491,-7.77408 -21.84463,-13.59591 -22.51038,-12.93741 -0.66575,0.65852 -3.90445,11.56267 -7.19702,24.23147 -3.29258,12.66878 -8.53083,32.1831 -11.64055,43.36517 -11.3149,40.68656 -10.85185,37.74076 -6.87584,43.74274 3.85079,5.81288 11.42267,7.17927 18.63324,3.36243 z M 427.70352,206.57655 c 4.78292,-6.01413 5.69499,-19.44991 1.82354,-26.86244 -4.49626,-8.60883 -13.25358,-14.14638 -22.50079,-14.22806 -10.53891,-0.0931 -16.60151,3.76389 -21.29565,13.54807 -7.23595,15.08227 -3.02749,26.73337 12.07141,33.41958 10.63449,4.70924 23.49217,2.18206 29.90149,-5.87715 z"
     id="path1468"
     inkscape:connector-curvature="0" />
  <text
     xml:space="preserve"
     style="font-style:normal;font-weight:normal;font-size:34.04789734px;line-height:21.27993584px;font-family:sans-serif;letter-spacing:0px;word-spacing:0px;fill:#000000;fill-opacity:1;stroke:none;stroke-width:0.85119742"
     x="68.284859"
     y="688.8576"
     id="text4430"
     transform="scale(1.0352008,0.96599618)"><tspan
       sodipodi:role="line"
       id="tspan4428"
       x="68.284859"
       y="688.8576"
       style="font-size:163.42990112px;stroke-width:0.85119742">PROJECT</tspan></text>
</svg>
