<?xml version="1.0" encoding="UTF-8" standalone="no"?>
<!-- Created with Inkscape (http://www.inkscape.org/) -->

<svg
   xmlns:dc="http://purl.org/dc/elements/1.1/"
   xmlns:cc="http://creativecommons.org/ns#"
   xmlns:rdf="http://www.w3.org/1999/02/22-rdf-syntax-ns#"
   xmlns:svg="http://www.w3.org/2000/svg"
   xmlns="http://www.w3.org/2000/svg"
   xmlns:sodipodi="http://sodipodi.sourceforge.net/DTD/sodipodi-0.dtd"
   xmlns:inkscape="http://www.inkscape.org/namespaces/inkscape"
   version="1.1"
   id="svg3858"
   width="864"
   height="690"
   viewBox="0 0 864 690"
   sodipodi:docname="team.svg"
   inkscape:version="0.92.4 (5da689c313, 2019-01-14)">
  <metadata
     id="metadata3864">
    <rdf:RDF>
      <cc:Work
         rdf:about="">
        <dc:format>image/svg+xml</dc:format>
        <dc:type
           rdf:resource="http://purl.org/dc/dcmitype/StillImage" />
        <dc:title></dc:title>
      </cc:Work>
    </rdf:RDF>
  </metadata>
  <defs
     id="defs3862" />
  <sodipodi:namedview
     pagecolor="#ffffff"
     bordercolor="#666666"
     borderopacity="1"
     objecttolerance="10"
     gridtolerance="10"
     guidetolerance="10"
     inkscape:pageopacity="0"
     inkscape:pageshadow="2"
     inkscape:window-width="1920"
     inkscape:window-height="986"
     id="namedview3860"
     showgrid="false"
     inkscape:zoom="0.34202899"
     inkscape:cx="21.216102"
     inkscape:cy="345"
     inkscape:window-x="-11"
     inkscape:window-y="-11"
     inkscape:window-maximized="1"
     inkscape:current-layer="svg3858" />
  <path
     style="opacity:1;fill:none;fill-opacity:1;fill-rule:nonzero;stroke:#000000;stroke-width:14.53676224;stroke-linecap:butt;stroke-linejoin:round;stroke-miterlimit:4;stroke-dasharray:none;stroke-dashoffset:0;stroke-opacity:0.9859813"
     d="m 151.09101,494.08417 c -5.93869,-6.80147 -6.9809,-21.85128 -6.08838,-87.91827 l 0.68773,-50.90885 h -5.32487 c -8.73103,0 -16.79988,-3.96337 -19.67529,-9.66438 -2.15697,-4.27658 -2.70023,-19.4653 -2.70023,-75.49351 0,-69.46547 0.0433,-70.22596 4.50534,-79.10153 3.52918,-7.02 13.95796,-20.35852 16.39408,-20.96819 8.84277,-2.21302 17.4937,-1.72487 22.98127,1.29677 3.57783,1.97008 8.24928,3.89401 10.38099,4.27539 2.13171,0.3814 9.10821,1.69982 15.50334,2.92984 17.37849,3.34256 31.35848,1.39595 43.89134,-6.11153 12.52702,-7.50395 14.91875,-7.73606 24.49746,-2.37756 12.86232,7.19544 21.79947,16.91537 23.7251,25.80316 0.98045,4.52523 1.80344,38.12475 1.82887,74.66561 0.0386,55.43129 -0.44079,67.43752 -2.89344,72.47172 -3.31941,6.8132 -11.88412,12.27421 -19.25015,12.27421 h -4.94103 v 62.8383 c 0,69.01184 -0.43028,71.91505 -11.56407,78.0261 -4.55426,2.49975 -13.81502,3.12021 -46.56975,3.12021 h -40.88504 z"
     id="path4411"
     inkscape:connector-curvature="0" />
  <path
     style="opacity:1;fill:#ff7f2a;fill-opacity:1;fill-rule:nonzero;stroke:#000000;stroke-width:14.53676224;stroke-linecap:butt;stroke-linejoin:round;stroke-miterlimit:4;stroke-dasharray:none;stroke-dashoffset:0;stroke-opacity:0.9859813"
     d="m 180.4681,148.54055 c -17.727,-6.63867 -24.9515,-14.42984 -31.27422,-33.72728 -9.29576,-28.371426 -3.35597,-47.853509 20.75811,-68.085118 10.80705,-9.067065 18.69504,-11.345188 33.62112,-9.710079 23.99765,2.628872 39.94117,15.762123 47.41442,39.05697 4.01263,12.50772 4.26545,15.383451 2.47694,28.173657 -2.20972,15.80234 -7.781,25.04171 -23.17171,38.4277 -6.89138,5.99374 -10.74294,7.62936 -21.40116,9.08838 -7.14856,0.97857 -13.43339,1.78998 -13.96632,1.80313 -0.53292,0.0131 -7.03866,-2.24916 -14.45718,-5.02736 z"
     id="path4413"
     inkscape:connector-curvature="0" />
  <path
     style="opacity:1;fill:#ffb380;fill-opacity:1;fill-rule:nonzero;stroke:#000000;stroke-width:14.53676224;stroke-linecap:butt;stroke-linejoin:round;stroke-miterlimit:4;stroke-dasharray:none;stroke-dashoffset:0;stroke-opacity:0.9859813"
     d="m 410.1577,148.90342 c -17.33631,-6.16711 -26.87886,-16.47511 -31.75886,-34.30636 -4.32343,-15.797644 -4.26928,-34.877441 0.12457,-43.896016 4.29157,-8.808608 23.16571,-27.988275 30.93165,-31.432353 9.30042,-4.124594 23.96724,-3.478257 38.86514,1.712708 18.04367,6.287064 27.26834,16.44249 32.83313,36.145982 3.74223,13.250276 3.9172,16.026106 1.83162,29.058329 -2.20415,13.77316 -2.8567,15.00056 -14.79601,27.83032 -13.26941,14.25905 -17.8385,16.66667 -34.77621,18.32489 -7.85351,0.76887 -13.97362,-0.1358 -23.25503,-3.4375 z"
     id="path4415"
     inkscape:connector-curvature="0" />
  <path
     style="opacity:1;fill:none;fill-opacity:1;fill-rule:nonzero;stroke:#000000;stroke-width:14.53706646;stroke-linecap:butt;stroke-linejoin:round;stroke-miterlimit:4;stroke-dasharray:none;stroke-dashoffset:0;stroke-opacity:0.9859813"
     d="m 394.20046,493.23924 -6.32881,-6.00246 0.23534,-51.44727 0.23533,-51.44732 -28.66934,-0.65834 c -27.49582,-0.63139 -28.88,-0.86864 -33.81592,-5.79604 -4.52584,-4.51803 -5.05053,-6.37875 -4.35015,-15.42693 1.30214,-16.82248 7.2947,-48.30212 12.29,-64.56082 2.56683,-8.35454 5.55019,-21.05841 6.62971,-28.23082 1.0795,-7.17239 2.72267,-15.16228 3.6515,-17.75528 0.92881,-2.59302 3.18707,-12.56672 5.01833,-22.16381 1.83125,-9.59708 3.96627,-18.37487 4.74448,-19.50618 0.77821,-1.1313 3.00506,-8.46626 4.94857,-16.29989 1.9435,-7.83363 5.26718,-16.35913 7.38593,-18.94557 5.12285,-6.25359 18.58095,-8.50179 24.86979,-4.15455 2.51796,1.74058 6.75826,3.61966 9.4229,4.17572 2.66463,0.55608 9.54215,1.99832 15.28336,3.20498 19.19794,4.03492 28.8842,2.89626 44.34697,-5.21323 16.69757,-8.75707 19.98951,-8.38888 31.17849,3.48722 8.23376,8.73938 10.7222,15.30188 14.00397,36.93115 0.98429,6.48725 4.42632,22.30852 7.64895,35.15842 3.22261,12.84989 7.21344,29.37994 8.86853,36.73345 1.65505,7.3535 4.7239,20.31211 6.81962,28.79693 6.88644,27.8805 7.69353,31.77219 8.7905,42.38615 1.28051,12.38965 -0.99318,17.93776 -9.64599,23.53775 -5.25137,3.39862 -9.83396,3.99724 -30.64991,4.00378 l -24.47536,0.008 -1.37195,25.24713 c -0.75457,13.88591 -0.75819,28.71963 -0.008,32.96381 0.75015,4.24418 0.73329,15.75217 -0.0375,25.5733 -1.29844,16.54498 -1.87014,18.35416 -7.78292,24.63003 l -6.38145,6.77343 h -28.26302 -28.26302 z"
     id="path4417"
     inkscape:connector-curvature="0" />
  <path
     style="opacity:1;fill:#ffb380;fill-opacity:1;fill-rule:nonzero;stroke:#000000;stroke-width:14.53676224;stroke-linecap:butt;stroke-linejoin:round;stroke-miterlimit:4;stroke-dasharray:none;stroke-dashoffset:0;stroke-opacity:0.9859813"
     d="m 653.048,148.55711 c -17.33631,-6.1671 -26.87886,-16.4751 -31.75886,-34.30636 -4.32343,-15.797647 -4.26929,-34.87744 0.12457,-43.896017 4.29156,-8.808611 23.16571,-27.988269 30.93165,-31.432355 9.30041,-4.124594 23.96724,-3.47825 38.86514,1.712708 18.04367,6.287068 27.26834,16.442492 32.83313,36.145981 3.74223,13.250278 3.9172,16.026109 1.83162,29.058343 -2.20415,13.77316 -2.8567,15.00055 -14.79601,27.83031 -13.26942,14.25905 -17.8385,16.66667 -34.77622,18.32489 -7.8535,0.76887 -13.97361,-0.1358 -23.25502,-3.4375 z"
     id="path4415-6"
     inkscape:connector-curvature="0" />
  <path
     style="opacity:1;fill:none;fill-opacity:1;fill-rule:nonzero;stroke:#000000;stroke-width:14.53706646;stroke-linecap:butt;stroke-linejoin:round;stroke-miterlimit:4;stroke-dasharray:none;stroke-dashoffset:0;stroke-opacity:0.9859813"
     d="m 637.09076,492.89293 -6.32881,-6.00246 0.23534,-51.44727 0.23533,-51.44732 -28.66935,-0.65833 c -27.49581,-0.6314 -28.87999,-0.86865 -33.81592,-5.79604 -4.52583,-4.51804 -5.05052,-6.37875 -4.35015,-15.42694 1.30215,-16.82247 7.29471,-48.30212 12.29001,-64.56082 2.56683,-8.35454 5.55019,-21.05841 6.62971,-28.23081 1.0795,-7.1724 2.72267,-15.16229 3.6515,-17.75529 0.92881,-2.59301 3.18707,-12.56672 5.01833,-22.16381 1.83125,-9.59708 3.96627,-18.37487 4.74448,-19.50617 0.7782,-1.13131 3.00506,-8.46626 4.94857,-16.2999 1.9435,-7.83363 5.26718,-16.35913 7.38593,-18.94557 5.12285,-6.25359 18.58095,-8.50178 24.86978,-4.15455 2.51796,1.74058 6.75827,3.61966 9.42291,4.17573 2.66463,0.55608 9.54215,1.99831 15.28336,3.20497 19.19794,4.03492 28.8842,2.89626 44.34697,-5.21323 16.69757,-8.75707 19.98951,-8.38887 31.17848,3.48722 8.23377,8.73938 10.72221,15.30188 14.00398,36.93116 0.98429,6.48725 4.42632,22.30852 7.64894,35.15842 3.22262,12.84989 7.21345,29.37993 8.86854,36.73344 1.65505,7.3535 4.7239,20.31211 6.81962,28.79693 6.88644,27.8805 7.69353,31.77219 8.7905,42.38615 1.2805,12.38965 -0.99318,17.93777 -9.64599,23.53775 -5.25137,3.39862 -9.83397,3.99724 -30.64991,4.00378 l -24.47536,0.008 -1.37195,25.24712 c -0.75457,13.88591 -0.75819,28.71963 -0.008,32.96381 0.75015,4.24418 0.73329,15.75217 -0.0375,25.5733 -1.29845,16.54498 -1.87015,18.35416 -7.78292,24.63003 l -6.38146,6.77343 h -28.26301 -28.26302 z"
     id="path4417-9"
     inkscape:connector-curvature="0" />
  <text
     xml:space="preserve"
     style="font-style:normal;font-weight:normal;font-size:34.04789734px;line-height:21.27993584px;font-family:sans-serif;letter-spacing:0px;word-spacing:0px;fill:#000000;fill-opacity:1;stroke:none;stroke-width:0.85119742"
     x="182.30771"
     y="679.88464"
     id="text4430"
     transform="scale(1.0352008,0.96599617)"><tspan
       sodipodi:role="line"
       id="tspan4428"
       x="182.30771"
       y="679.88464"
       style="font-size:163.42990112px;stroke-width:0.85119742">TEAM</tspan></text>
  <text
     xml:space="preserve"
     style="font-style:normal;font-weight:normal;font-size:40px;line-height:25px;font-family:sans-serif;letter-spacing:0px;word-spacing:0px;fill:#000000;fill-opacity:1;stroke:none"
     x="207.58475"
     y="599.36438"
     id="text4498"><tspan
       sodipodi:role="line"
       id="tspan4496"
       x="207.58475"
       y="622.255" /></text>
</svg>
