<?xml version="1.0" encoding="UTF-8" standalone="no"?>
<!-- Created with Inkscape (http://www.inkscape.org/) -->

<svg
   xmlns:dc="http://purl.org/dc/elements/1.1/"
   xmlns:cc="http://creativecommons.org/ns#"
   xmlns:rdf="http://www.w3.org/1999/02/22-rdf-syntax-ns#"
   xmlns:svg="http://www.w3.org/2000/svg"
   xmlns="http://www.w3.org/2000/svg"
   xmlns:sodipodi="http://sodipodi.sourceforge.net/DTD/sodipodi-0.dtd"
   xmlns:inkscape="http://www.inkscape.org/namespaces/inkscape"
   version="1.1"
   id="svg3858"
   width="864"
   height="690"
   viewBox="0 0 864 690"
   sodipodi:docname="tekdoc.svg"
   inkscape:version="0.92.4 (5da689c313, 2019-01-14)">
  <metadata
     id="metadata3864">
    <rdf:RDF>
      <cc:Work
         rdf:about="">
        <dc:format>image/svg+xml</dc:format>
        <dc:type
           rdf:resource="http://purl.org/dc/dcmitype/StillImage" />
        <dc:title></dc:title>
      </cc:Work>
    </rdf:RDF>
  </metadata>
  <defs
     id="defs3862" />
  <sodipodi:namedview
     pagecolor="#ffffff"
     bordercolor="#666666"
     borderopacity="1"
     objecttolerance="10"
     gridtolerance="10"
     guidetolerance="10"
     inkscape:pageopacity="0"
     inkscape:pageshadow="2"
     inkscape:window-width="1920"
     inkscape:window-height="986"
     id="namedview3860"
     showgrid="false"
     inkscape:zoom="0.34202899"
     inkscape:cx="-436.04776"
     inkscape:cy="345"
     inkscape:window-x="-11"
     inkscape:window-y="-11"
     inkscape:window-maximized="1"
     inkscape:current-layer="svg3858" />
  <path
     style="fill:#000000;fill-opacity:0.2108262;stroke:#000000;stroke-width:5.00516796;stroke-miterlimit:4;stroke-dasharray:none;stroke-opacity:1"
     d="m 299.19922,427.86546 v 49.11344 c -46.7808,7.41715 -82.02666,39.89216 -82.02666,78.58152 v 41.79654 c 0,7.61761 6.921,14.2329 16.53349,15.73636 l 41.26969,6.41482 c 5.51116,0.90208 10.89416,-1.90439 12.04766,-6.31459 l 3.97316,-15.73635 c 1.1535,-4.30996 -2.43516,-8.61991 -8.07449,-9.42176 l -24.73615,-3.90903 v -28.56599 c 0,-62.94539 123.03992,-65.25072 123.03992,1.9044 v 26.76182 l -24.73615,3.90903 c -5.51116,0.90209 -9.09983,5.11181 -8.07449,9.42177 l 3.97316,15.73635 c 1.1535,4.30996 6.5365,7.11643 12.04765,6.31458 l 39.98799,-4.20973 c 10.12515,-1.10254 17.68698,-7.81805 17.68698,-15.93681 v -43.90141 c 0,-38.68936 -35.24581,-71.06415 -82.02661,-78.58152 v -45.30465 c 2.81966,0.70162 5.63932,1.10255 8.459,1.90441 23.06998,6.31457 47.80614,9.82268 73.56761,9.82268 25.76149,0 50.49763,-3.50811 73.56762,-9.82268 9.48432,-2.60602 19.09684,-4.20974 28.96565,-5.21205 v 81.78893 c -29.60648,6.91598 -51.26663,28.16505 -51.26663,53.52363 0,30.97155 32.16982,56.12967 71.77329,56.12967 39.60347,0 71.7733,-25.15812 71.7733,-56.12967 0,-25.35858 -21.66016,-46.60765 -51.26665,-53.52363 V 429.5694 c 81.51396,10.72477 143.67476,65.65163 143.67476,132.40585 v 44.90371 c 0,24.7572 -25.76148,44.90373 -57.41863,44.90373 H 192.56457 c -31.65715,0 -57.41863,-20.14653 -57.41863,-44.90373 v -44.90371 c 0,-72.16671 72.79862,-130.6017 164.05328,-134.10979 z"
     id="path1508"
     inkscape:connector-curvature="0" />
  <text
     xml:space="preserve"
     style="font-style:normal;font-weight:normal;font-size:40px;line-height:25px;font-family:sans-serif;letter-spacing:0px;word-spacing:0px;fill:#000000;fill-opacity:1;stroke:none"
     x="207.58475"
     y="599.36438"
     id="text4498"><tspan
       sodipodi:role="line"
       id="tspan4496"
       x="207.58475"
       y="622.255" /></text>
  <path
     inkscape:connector-curvature="0"
     style="fill:#000000;fill-opacity:0.69230772;stroke:#000000;stroke-width:5.48619032;stroke-miterlimit:4;stroke-dasharray:none;stroke-opacity:1"
     d="m 710.38478,195.05938 -6.72359,10.60598 c -2.45985,3.93088 -7.70749,5.56256 -12.3812,4.00503 -9.6754,-3.26336 -18.53082,-7.93592 -26.32031,-13.79516 -3.77179,-2.81837 -4.75574,-7.78761 -2.29589,-11.64432 l 6.7236,-10.60597 c -5.65766,-5.93342 -10.08537,-12.831 -13.03718,-20.32193 h -13.52915 c -4.91967,0 -9.18343,-3.1892 -10.00336,-7.63927 -1.63991,-8.90011 -1.72188,-18.24522 0,-27.51618 0.81993,-4.45006 5.08369,-7.71344 10.00336,-7.71344 h 13.52915 c 2.95181,-7.49092 7.37952,-14.388524 13.03718,-20.321926 l -6.7236,-10.605968 c -2.45985,-3.856726 -1.55788,-8.825966 2.29589,-11.644337 7.78949,-5.859232 16.72693,-10.531799 26.32031,-13.795173 4.67371,-1.557523 9.92135,0.07416 12.3812,4.005048 l 6.72359,10.605971 c 8.60943,-1.409178 17.3829,-1.409178 25.99234,0 l 6.72357,-10.605971 c 2.45983,-3.930877 7.70751,-5.562571 12.38122,-4.005048 9.67541,3.263374 18.53082,7.935941 26.3203,13.795173 3.7718,2.818371 4.75573,7.787611 2.29587,11.644337 l -6.72357,10.605968 c 5.65767,5.933402 10.08535,12.831006 13.03718,20.321926 h 13.52915 c 4.91966,0 9.18342,3.1892 10.00334,7.63927 1.63994,8.90011 1.72189,18.24523 0,27.51618 -0.81992,4.45005 -5.08368,7.71344 -10.00334,7.71344 h -13.52915 c -2.95183,7.49093 -7.37951,14.38851 -13.03718,20.32193 l 6.72357,10.60597 c 2.45986,3.85671 1.55786,8.82595 -2.29587,11.64432 -7.78948,5.85924 -16.72691,10.5318 -26.3203,13.79516 -4.67371,1.55753 -9.92139,-0.0741 -12.38122,-4.00503 l -6.72357,-10.60598 c -8.52748,1.40919 -17.38291,1.40919 -25.99234,0 z"
     id="path5822" />
  <path
     inkscape:connector-curvature="0"
     style="fill:#ffffff;fill-opacity:1;stroke:#000000;stroke-width:5.48619032;stroke-miterlimit:4;stroke-dasharray:none;stroke-opacity:1"
     d="m 701.77531,151.44881 c 31.56802,21.95362 67.56369,-10.60598 43.29327,-39.1605 -31.568,-22.027787 -67.56374,10.60597 -43.29327,39.1605 z"
     id="path5820" />
  <path
     inkscape:connector-curvature="0"
     style="fill:#ffffba;stroke:#000000;stroke-width:5.48561144;stroke-miterlimit:4;stroke-dasharray:none;stroke-opacity:1;fill-opacity:1"
     d="m 563.86185,280.21186 27.62636,12.4602 c 8.27969,4.30172 11.8867,13.42438 8.60758,21.58286 -7.29596,17.94862 -21.64197,34.41385 -34.92231,48.80245 -6.06629,6.60092 -16.55939,8.23263 -24.83908,3.93088 l -23.85539,-12.46021 c -13.11636,10.16101 -28.36411,18.24529 -45.00551,23.51122 v 24.92039 c 0,8.60348 -6.8041,16.02026 -16.14951,17.50363 -20.1664,3.11506 -41.31653,3.2634 -62.22073,0 -9.42741,-1.48337 -16.39544,-8.82597 -16.39544,-17.50363 v -24.92039 c -16.64141,-5.34009 -31.88918,-13.35021 -45.00553,-23.51122 l -23.85538,12.38604 c -8.19772,4.30174 -18.77278,2.67003 -24.8391,-3.93089 -13.28032,-14.38858 -27.29843,-30.85384 -34.5944,-48.72827 -3.27909,-8.08432 0.32792,-17.20696 8.60761,-21.58286 l 27.29842,-12.4602 c -3.1971,-15.50108 -3.1971,-31.44717 0,-47.02243 l -27.29842,-12.53437 c -8.2797,-4.30174 -11.96869,-13.42438 -8.60761,-21.50867 7.29597,-17.94862 21.31408,-34.41388 34.5944,-48.80245 6.06632,-6.60094 16.55939,-8.23263 24.8391,-3.93091 l 23.85538,12.46021 c 13.11635,-10.161 28.36412,-18.24529 45.00553,-23.51121 v -24.99457 c 0,-8.5293 6.72211,-15.946091 16.06751,-17.42945 20.1664,-3.115054 41.39853,-3.263384 62.3027,-0.07416 9.4274,1.483358 16.39547,8.82597 16.39547,17.50361 v 24.92041 c 16.6414,5.34007 31.88915,13.35019 45.00551,23.51119 l 23.85539,-12.4602 c 8.19773,-4.30172 18.77279,-2.67003 24.83908,3.9309 13.28034,14.38855 27.21647,30.85383 34.51243,48.80245 3.27911,8.0843 0.0822,17.20694 -8.1977,21.58285 l -27.62636,12.46021 c 3.19713,15.57524 3.19713,31.52132 0,47.09659 z"
     id="path5818" />
  <path
     style="fill:#ffffff;stroke:#000000;stroke-width:5.48600101;stroke-miterlimit:4;stroke-dasharray:none;stroke-opacity:1;fill-opacity:0.84045583"
     d="M 492.76193,314.97811 C 567.68468,227.44959 456.43955,127.53069 358.98929,194.82532 284.06651,282.35384 395.31164,382.2728 492.76193,314.97811 Z"
     id="path5816"
     inkscape:connector-curvature="0" />
  <path
     style="fill:#000000;fill-opacity:0.96581199;stroke:#000000;stroke-width:8.07495594;stroke-miterlimit:4;stroke-dasharray:none;stroke-opacity:1"
     d="m 515.49103,564.78807 c 0,16.02914 13.70183,28.92476 30.73309,28.92476 17.03126,0 30.73309,-12.89562 30.73309,-28.92476 0,-16.02914 -13.70183,-28.92477 -30.73309,-28.92477 -17.03126,0 -30.73309,12.89563 -30.73309,28.92477 z"
     id="path5799"
     inkscape:connector-curvature="0" />
  <text
     xml:space="preserve"
     style="font-style:normal;font-weight:normal;font-size:40px;line-height:25px;font-family:sans-serif;letter-spacing:0px;word-spacing:0px;fill:#000000;fill-opacity:1;stroke:none"
     x="-347.92374"
     y="865.42371"
     id="text5882"><tspan
       sodipodi:role="line"
       id="tspan5880"
       x="-347.92374"
       y="888.31433" /></text>
</svg>
