<?xml version="1.0" encoding="UTF-8" standalone="no"?>
<!-- Created with Inkscape (http://www.inkscape.org/) -->

<svg
   xmlns:dc="http://purl.org/dc/elements/1.1/"
   xmlns:cc="http://creativecommons.org/ns#"
   xmlns:rdf="http://www.w3.org/1999/02/22-rdf-syntax-ns#"
   xmlns:svg="http://www.w3.org/2000/svg"
   xmlns="http://www.w3.org/2000/svg"
   xmlns:sodipodi="http://sodipodi.sourceforge.net/DTD/sodipodi-0.dtd"
   xmlns:inkscape="http://www.inkscape.org/namespaces/inkscape"
   version="1.1"
   id="svg915"
   width="50"
   height="50"
   viewBox="0 0 50 50"
   sodipodi:docname="themis.svg"
   inkscape:version="0.92.4 (5da689c313, 2019-01-14)">
  <metadata
     id="metadata921">
    <rdf:RDF>
      <cc:Work
         rdf:about="">
        <dc:format>image/svg+xml</dc:format>
        <dc:type
           rdf:resource="http://purl.org/dc/dcmitype/StillImage" />
        <dc:title></dc:title>
      </cc:Work>
    </rdf:RDF>
  </metadata>
  <defs
     id="defs919" />
  <sodipodi:namedview
     pagecolor="#ffffff"
     bordercolor="#666666"
     borderopacity="1"
     objecttolerance="10"
     gridtolerance="10"
     guidetolerance="10"
     inkscape:pageopacity="0"
     inkscape:pageshadow="2"
     inkscape:window-width="1920"
     inkscape:window-height="986"
     id="namedview917"
     showgrid="false"
     inkscape:zoom="2.7362319"
     inkscape:cx="177.50265"
     inkscape:cy="33.622881"
     inkscape:window-x="-11"
     inkscape:window-y="-11"
     inkscape:window-maximized="1"
     inkscape:current-layer="svg915" />
  <g
     id="g3234"
     transform="matrix(0.06355569,0,0,0.06355569,-4.5772448,4.426043)">
    <text
       transform="scale(1.0352008,0.96599617)"
       id="text4430"
       y="694.91095"
       x="129.22447"
       style="font-style:normal;font-weight:normal;font-size:34.04789734px;line-height:21.27993584px;font-family:sans-serif;letter-spacing:0px;word-spacing:0px;fill:#000000;fill-opacity:1;stroke:none;stroke-width:0.85119742"
       xml:space="preserve"><tspan
         style="font-size:163.42990112px;line-height:55.294487px;stroke-width:0.85119742"
         y="694.91095"
         x="129.22447"
         id="tspan4428"
         sodipodi:role="line">THEMIS</tspan></text>
    <g
       id="g5174"
       transform="matrix(8.1620539,0,0,7.5434361,7.0035874,-136.10256)">
      <ellipse
         style="fill:#000000;fill-opacity:1;stroke:#fdffff;stroke-width:3.0999999;stroke-linecap:butt;stroke-miterlimit:4;stroke-dasharray:none;stroke-opacity:1"
         id="path1570"
         cx="53.445831"
         cy="54.773956"
         ry="35.586456"
         rx="37.835415" />
      <g
         id="g540"
         transform="rotate(-0.92339684,1175.6197,-1068.9939)"
         inkscape:export-xdpi="96"
         inkscape:export-ydpi="96">
        <path
           style="fill:#f9f9f9;stroke-width:0.35770527;stroke-linecap:butt;stroke-miterlimit:4;stroke-dasharray:none"
           d="m 115.38617,267.84691 c -0.0978,-1.06191 0.19669,-2.0651 1.50688,-5.13267 1.59916,-3.74414 1.80274,-6.15934 0.72008,-8.54282 -0.61025,-1.34345 -2.57102,-3.37808 -3.25546,-3.37808 -1.61683,0 -1.77333,1.08145 -0.67824,4.6868 0.95799,3.15396 0.73323,4.44339 -1.10459,6.33714 -2.14414,2.20939 -4.03577,3.05845 -6.7904,3.04787 -1.27679,-0.005 -3.03386,-0.21396 -3.9046,-0.46457 l -1.58316,-0.45566 2.27993,-1.21814 c 4.10252,-2.19195 5.74399,-4.5464 5.19814,-7.45601 -0.29368,-1.56545 -2.29996,-3.89934 -4.17374,-4.85526 -0.7366,-0.37579 -2.87828,-1.08312 -4.759277,-1.57185 -8.691486,-2.25824 -22.355622,-9.04235 -29.307297,-14.55079 -6.139518,-4.8649 -18.235445,-16.93413 -23.849938,-23.79731 -4.344355,-5.31056 -12.605622,-20.53483 -14.857856,-27.38079 -3.242238,-9.85521 -4.834942,-21.78919 -4.837909,-36.25 -0.0022,-10.75599 0.456973,-15.81589 1.970354,-21.71214 2.49717,-9.72916 9.922917,-25.393822 15.552995,-32.80914 3.7132,-4.890614 6.18836,-6.334642 10.863531,-6.337871 3.613986,-0.0025 5.055169,0.640982 6.146434,2.744339 1.581657,3.048561 1.736193,5.921311 1.896678,35.257672 0.150193,27.4554 0.381207,33.5647 1.451643,38.38942 0.426764,1.92354 3.968493,15.29433 4.975061,18.78193 0.141607,0.49064 -0.315064,0.45637 -3.50265,-0.26286 -5.152029,-1.16248 -10.497952,-1.65565 -16.23837,-1.498 -4.122408,0.11321 -5.134443,0.2529 -6.17852,0.85276 -2.33904,1.34388 -3.559539,5.28869 -2.34946,7.59377 0.278452,0.53042 1.179062,1.60726 2.001353,2.39298 1.933159,1.84716 5.994582,6.79192 12.991548,15.81711 15.010463,19.3616 21.724788,25.68001 33.25082,31.29018 7.736733,3.76577 11.84122,4.78638 20.54866,5.10957 6.32262,0.23467 9.27355,-0.0281 10.38031,-0.92429 1.33719,-1.08279 1.91588,-0.33043 -11.68173,-15.18753 C 97.884222,215.23628 92.944011,208.09681 87.618536,196.81052 80.212629,181.11516 75.743193,165.58641 73.962854,149.36477 73.320682,143.51358 73.408672,130.62055 74.130882,124.74421 75.597736,112.809 79.651368,98.96073 84.382525,89.721912 86.194093,86.184355 90.998547,79.548636 95.485858,74.386428 104.14093,64.429634 120.215,54.628206 137.29245,48.894177 c 7.58006,-2.545125 9.87283,-2.873429 18.31341,-2.622319 11.01213,0.327614 16.75049,1.438677 24.46429,4.73679 7.64504,3.26871 14.56467,7.759166 20.2546,13.144104 10.09017,9.549314 15.95595,21.507153 18.49919,37.712018 1.22277,7.79122 1.04497,26.93043 -0.28799,30.99912 -1.03956,3.17314 -1.8939,0.97909 -4.52277,-11.61504 -4.4577,-21.35542 -6.3975,-26.120602 -13.50832,-33.18356 C 194.35295,81.95479 188.05137,77.465882 180.24872,73.635899 171.5,69.34153 165.06333,67.54417 156.14158,66.904285 c -5.15294,-0.369578 -7.03594,-0.866661 -9.65888,-2.549796 -1.89228,-1.214272 -2.12684,-1.270834 -2.12684,-0.512869 0,0.672255 0.5759,1.584299 3.6003,5.70172 4.32346,5.885988 6.71034,10.368226 8.46326,15.892858 1.85598,5.849478 2.04583,7.196842 2.01286,14.285714 -0.0288,6.180618 -0.10153,6.875848 -1.12758,10.769528 -1.2665,4.80614 -3.30837,9.39213 -5.6309,12.64687 -3.02301,4.23637 -13.16872,13.72646 -14.67475,13.72646 -0.65284,0 -0.64891,-0.0256 0.37709,-2.46332 1.07883,-2.56318 1.62764,-5.79257 1.58429,-9.3224 -0.042,-3.41437 -0.33034,-4.46428 -1.22625,-4.46428 -0.87943,0 -1.2975,1.23182 -2.27937,6.71603 -1.5487,8.65017 -4.07142,12.39381 -9.05959,13.44411 -2.9911,0.62981 -7.32145,2.14255 -10.93582,3.82027 -1.84842,0.85799 -3.41439,1.50635 -3.47995,1.44079 -0.0656,-0.0656 0.41731,-0.74964 1.07305,-1.52019 3.03063,-3.56132 9.13983,-13.69305 10.59201,-17.56622 1.01777,-2.71452 1.41649,-7.07695 1.444,-15.79908 0.0228,-7.22131 0.27912,-10.77367 0.81621,-11.310754 0.5848,-0.584803 2.00456,1.688124 5.60959,8.980574 2.13869,4.32624 4.39815,8.48104 5.02102,9.23288 1.01732,1.22798 1.18814,1.31133 1.6798,0.81967 0.87231,-0.87231 0.0196,-3.75925 -2.7751,-9.3956 -3.51683,-7.09271 -7.61734,-13.099242 -12.0475,-17.64747 -3.83375,-3.935918 -5.64833,-5.245268 -6.70649,-4.839215 -0.79299,0.3043 -0.58466,1.194986 1.22362,5.231347 2.49532,5.569968 3.93164,13.395558 3.93303,21.428568 10e-4,5.17112 -0.53598,8.12502 -2.30436,12.67857 -2.35118,6.05426 -6.9439,14.46429 -7.89895,14.46429 -0.52852,0 -0.77132,-1.61777 -1.21338,-8.08487 -0.66139,-9.67556 -1.87839,-15.48628 -4.14811,-19.80557 -1.60305,-3.0506 -4.04178,-5.41577 -5.42024,-5.25673 -1.451475,0.16746 -1.432278,1.42545 0.0668,4.37762 1.95893,3.85776 2.42445,6.08215 2.62184,12.52774 0.12905,4.21415 0.0217,6.76941 -0.40725,9.69442 -0.95678,6.52423 -3.519711,14.66053 -4.734793,15.03114 -0.274693,0.0838 -0.488486,-0.69831 -0.629672,-2.30345 -0.423957,-4.81999 -2.647903,-10.94221 -4.911253,-13.52002 -1.176914,-1.34043 -2.072575,-1.54414 -2.946554,-0.67016 -0.692853,0.69285 -0.502857,1.61187 1.028336,4.97417 2.114854,4.64392 2.546232,7.47151 3.058568,20.04828 0.864253,21.2155 3.125996,30.78801 10.923468,46.23204 6.70671,13.2836 14.87574,22.35296 22.16064,24.60304 2.79278,0.8626 4.62071,0.90913 7.38905,0.18806 2.28842,-0.59606 4.16475,-0.69821 4.16475,-0.22673 0,0.58291 -1.49192,2.20544 -2.5138,2.73387 -0.70414,0.36413 -2.14232,0.52858 -4.62253,0.52858 -2.90964,0 -3.64079,0.10533 -3.81105,0.54902 -0.30136,0.78533 0.71534,1.75693 2.84784,2.72153 1.69091,0.76484 2.33702,0.83659 7.53341,0.83659 4.48459,0 5.71829,0.10286 5.84702,0.48748 0.26122,0.78055 -4.20898,4.77183 -6.96849,6.22191 -2.27532,1.19565 -2.79386,1.32633 -5.2631,1.32633 -2.73558,0 -4.12073,0.38337 -4.12073,1.14051 0,0.2206 0.62503,1.78192 1.38895,3.46958 1.57958,3.48961 1.98006,4.89498 1.48253,5.20247 -0.18998,0.11742 -0.63254,-0.0922 -0.98345,-0.46579 -3.18821,-3.39435 -3.94974,-4.11401 -4.84116,-4.57498 -0.56258,-0.29092 -1.45416,-0.47912 -1.9813,-0.41823 -0.79416,0.0918 -0.97774,0.31145 -1.07112,1.28185 -0.0982,1.02105 0.0233,1.21854 0.94842,1.54104 1.42058,0.49522 2.02543,2.04758 2.00463,5.14498 -0.0143,2.12921 -0.19254,2.82863 -1.20178,4.71583 -0.65175,1.21871 -1.75971,2.88725 -2.46213,3.70788 -2.30075,2.6879 -5.34623,4.41136 -5.46757,3.09414 z"
           id="path4099"
           inkscape:connector-curvature="0"
           transform="scale(0.26458333)" />
        <path
           style="fill:#f9f9f9;stroke-width:0.35770527;stroke-linecap:butt;stroke-miterlimit:4;stroke-dasharray:none"
           d="m 115.38617,267.84691 c -0.0963,-1.04575 0.193,-2.0584 1.54939,-5.42265 1.28022,-3.17534 1.41431,-3.78909 1.24229,-5.68615 -0.21484,-2.36926 -1.5118,-4.62991 -3.19978,-5.57735 -0.87218,-0.48955 -1.01772,-0.48211 -1.58062,0.0808 -0.58856,0.58856 -0.57711,0.7885 0.2257,3.94366 0.52406,2.0596 0.75284,3.69362 0.60155,4.29641 -0.31364,1.24964 -2.62073,3.55566 -4.58616,4.58403 -1.79911,0.94135 -5.23832,1.0959 -7.7587,0.34865 l -1.58316,-0.46938 2.26594,-1.21067 c 2.74521,-1.46674 3.78065,-2.39497 4.72389,-4.23477 1.3255,-2.58542 0.18272,-5.50964 -2.96802,-7.59469 -0.77449,-0.51253 -3.29273,-1.44711 -5.596104,-2.07685 -5.476157,-1.49717 -9.089643,-2.94297 -15.616521,-6.24837 -10.158572,-5.14459 -15.146097,-8.91604 -25.741077,-19.4648 -11.704969,-11.6539 -15.452713,-16.7334 -22.137198,-30.00362 -1.782015,-3.5377 -3.818712,-8.21023 -4.525992,-10.3834 -3.393218,-10.42589 -5.222334,-25.63608 -4.785172,-39.79155 0.361825,-11.71603 1.417712,-17.59015 4.641439,-25.82126 6.363338,-16.24746 13.680532,-27.900825 19.050634,-30.340057 2.108769,-0.957853 7.147806,-1.104921 8.822389,-0.257489 3.649394,1.846793 4.120148,6.622625 4.135462,41.954516 0.01289,29.75853 -0.0021,29.59648 4.130593,44.72846 1.265979,4.63545 2.301779,8.45342 2.301779,8.48438 0,0.031 -1.616915,-0.30716 -3.59314,-0.75137 -5.05737,-1.13678 -10.984643,-1.67606 -16.500976,-1.50131 -5.305179,0.16806 -6.503443,0.55968 -7.690021,2.51333 -1.825934,3.0063 -1.468157,5.31542 1.251018,8.07415 1.915201,1.94307 6.967633,8.15438 15.300103,18.8095 13.350391,17.07178 20.075119,23.17561 31.666244,28.74246 7.41635,3.56184 11.27086,4.52832 19.47349,4.88279 6.2679,0.27087 9.76406,-0.0299 10.88331,-0.93619 0.70868,-0.57385 0.74788,-0.746 0.34239,-1.50366 -0.48791,-0.91167 -3.58264,-4.40779 -10.73386,-12.12609 C 98.475365,216.10039 93.57769,209.17509 88.030758,197.67619 75.33295,171.35336 70.750068,143.98688 74.916468,119.36477 c 2.070782,-12.23766 7.246,-26.950712 11.951707,-33.978472 2.869929,-4.286109 9.681222,-12.448551 12.672054,-15.185793 10.709351,-9.801314 25.979721,-18.054863 41.958491,-22.678329 3.18684,-0.922113 4.55452,-1.113167 9.10714,-1.272196 9.45704,-0.330346 18.76291,0.821264 25.42444,3.146299 4.3354,1.513163 11.05643,4.840884 15.07957,7.466217 16.53275,10.788574 25.58799,26.33153 28.0907,48.216554 0.46357,4.05373 0.55191,7.15675 0.40668,14.28572 -0.23133,11.35582 -0.90172,15.73333 -2.23945,14.62312 -0.74046,-0.61452 -1.3828,-3.03311 -3.40945,-12.83741 -4.18213,-20.23186 -6.20623,-25.428536 -12.4311,-31.915554 -6.28396,-6.548607 -13.28541,-11.651537 -21.63567,-15.768937 -8.01775,-3.953444 -15.09805,-5.89468 -23.92857,-6.5606 -4.9875,-0.376113 -6.42891,-0.757817 -9.5824,-2.53754 -1.42911,-0.806535 -2.02475,-0.995636 -2.02475,-0.642808 0,0.632284 1.42067,2.875986 4.16215,6.573426 6.59367,8.892882 9.66513,17.318016 10.01049,27.459159 0.3445,10.116174 -1.9313,18.462344 -6.96298,25.535714 -3.01443,4.23758 -13.03262,13.57143 -14.56647,13.57143 -0.65284,0 -0.64891,-0.0256 0.37709,-2.46332 1.49237,-3.54571 2.08933,-9.59165 1.24666,-12.62597 -0.8367,-3.01283 -1.99824,-0.97828 -3.16636,5.54618 -1.62671,9.08597 -3.9212,12.31791 -9.67388,13.62633 -3.06565,0.69726 -6.8001,2.03429 -10.67962,3.82356 -1.65161,0.76174 -3.05702,1.33089 -3.12314,1.26478 -0.0661,-0.0661 0.7227,-1.18073 1.75293,-2.47692 4.21938,-5.30866 9.80152,-15.33539 10.59306,-19.02745 0.26712,-1.24595 0.56996,-6.58275 0.72894,-12.84576 0.25915,-10.20987 0.42147,-11.964288 1.10688,-11.964288 0.64519,0 2.18802,2.593458 5.41776,9.107138 4.73467,9.54879 5.78481,11.10885 6.71959,9.98251 0.66368,-0.7997 -0.0373,-3.35914 -2.16207,-7.89458 -3.76193,-8.02989 -8.82596,-15.387693 -13.97305,-20.302211 -3.21826,-3.072836 -4.57353,-3.971207 -5.47123,-3.626725 -0.73821,0.283279 -0.49658,1.286975 1.26,5.233868 2.45488,5.515896 3.90566,13.459668 3.90056,21.357578 -0.004,5.62322 -0.45318,8.0744 -2.371,12.92814 -2.44074,6.17715 -7.04281,14.64285 -7.96006,14.64285 -0.39777,0 -0.66236,-1.98089 -1.09722,-8.21428 -0.89517,-12.8319 -2.87554,-19.69768 -6.8191,-23.64124 -1.3897,-1.38969 -1.96848,-1.73841 -2.73819,-1.64975 -1.44811,0.16679 -1.436396,1.38988 0.0403,4.20882 2.23505,4.26659 2.54521,6.03402 2.54015,14.47502 -0.004,6.39875 -0.12029,8.02885 -0.79307,11.10166 -1.45487,6.64479 -3.73789,12.68098 -4.506843,11.91583 -0.108779,-0.10823 -0.361775,-1.64449 -0.562214,-3.4139 -0.419897,-3.70664 -1.221311,-6.25218 -3.0849,-9.7986 -1.826047,-3.47497 -3.338283,-4.59656 -4.555865,-3.37898 -0.656114,0.65611 -0.359325,1.90217 1.413365,5.93399 1.621382,3.68769 2.185596,7.65446 2.635446,18.52879 0.794686,19.21012 2.360211,27.39781 7.580681,39.64693 7.93491,18.61817 18.23089,30.64212 27.61494,32.24955 1.88168,0.32231 2.72291,0.28433 4.88062,-0.22035 3.12647,-0.73127 4.57136,-0.77291 4.57136,-0.13173 0,0.53985 -1.59747,2.11251 -2.74438,2.70175 -0.42905,0.22043 -2.40284,0.40078 -4.38621,0.40078 -2.9148,0 -3.6465,0.10525 -3.81679,0.54902 -0.30136,0.78533 0.71534,1.75693 2.84784,2.72153 1.71822,0.77719 2.26161,0.8324 7.65311,0.77756 5.13049,-0.0522 5.80357,0.008 5.80357,0.51819 0,0.85546 -3.7704,4.35962 -6.42857,5.97462 -2.16767,1.317 -2.54615,1.42267 -5.71429,1.59546 -3.32696,0.18146 -4.28571,0.42719 -4.28571,1.09849 0,0.18457 0.64327,1.76419 1.42948,3.51026 1.6283,3.61621 2.10269,5.39773 1.43736,5.39773 -0.24021,0 -1.33016,-0.96676 -2.42211,-2.14836 -2.27592,-2.46277 -3.88304,-3.56593 -5.19496,-3.56593 -1.64919,0 -1.73861,2.58531 -0.10361,2.99567 1.18108,0.29643 1.8206,2.0917 1.80417,5.06462 -0.0169,3.05023 -1.1058,5.49244 -3.79349,8.50796 -2.47928,2.78169 -5.21853,4.31283 -5.34082,2.98532 z"
           id="path4101"
           inkscape:connector-curvature="0"
           transform="scale(0.26458333)" />
        <path
           style="fill:#f9f9f9;stroke-width:0.35770527;stroke-linecap:butt;stroke-miterlimit:4;stroke-dasharray:none"
           d="m 115.31697,267.80669 c -0.16922,-0.44097 0.12556,-1.36975 2.28257,-7.19192 0.8913,-2.40578 0.84419,-4.28886 -0.16083,-6.42857 -1.24585,-2.65243 -2.80115,-3.76017 -4.02399,-2.866 -0.62992,0.46061 -0.62271,0.59851 0.20035,3.83323 0.47732,1.87594 0.75546,3.74098 0.63079,4.22982 -0.39905,1.56484 -2.35248,3.48972 -4.72861,4.65948 -2.08985,1.02884 -2.52825,1.11828 -4.54085,0.92639 -1.22522,-0.11682 -2.76213,-0.40089 -3.41535,-0.63128 l -1.18767,-0.41888 2.00063,-1.11638 c 3.08536,-1.72167 4.3551,-2.90345 5.03646,-4.68756 0.52566,-1.37642 0.55633,-1.8529 0.19658,-3.05364 -0.92087,-3.0736 -3.13843,-4.60605 -9.016278,-6.23071 -10.012311,-2.76744 -23.082947,-9.52775 -30.663479,-15.85956 -7.44129,-6.2155 -18.870294,-17.90153 -23.411864,-23.93837 -4.510347,-5.99533 -11.603708,-19.56815 -13.916581,-26.62872 -4.570963,-13.95392 -6.13522,-37.6854 -3.519612,-53.39639 1.892275,-11.3662 12.019114,-32.656775 18.720821,-39.358482 2.361259,-2.361258 4.316169,-3.371915 7.171392,-3.70749 2.541869,-0.298746 5.712294,0.363222 6.681699,1.395107 1.002453,1.067065 1.748242,3.281468 2.225206,6.607097 0.239689,1.671257 0.50785,14.459488 0.686582,32.742338 0.337379,34.51113 0.09342,31.75337 4.101021,46.35865 1.283022,4.67583 2.332765,8.55269 2.332765,8.61525 0,0.0625 -1.245536,-0.17317 -2.767857,-0.52383 -5.357165,-1.234 -8.536951,-1.56694 -15.089286,-1.57988 -5.998838,-0.0119 -6.736546,0.0548 -8.012663,0.72429 -2.590171,1.3588 -3.717952,4.96329 -2.375967,7.5938 0.418159,0.81966 0.89578,1.49029 1.06138,1.49029 0.430595,0 7.530206,8.5904 14.167865,17.14286 14.24281,18.3515 21.057921,24.80769 32.006839,30.32115 8.257807,4.15833 12.652467,5.28871 21.902547,5.63371 5.94146,0.2216 9.37003,-0.15921 10.17591,-1.13023 0.7606,-0.91646 0.26841,-1.55864 -8.21419,-10.71749 C 98.363083,216.04907 93.792322,209.69649 87.76064,197.13005 73.04005,166.46112 69.497511,134.36065 77.802886,106.89858 80.742518,97.178573 83.744761,90.050126 86.854768,85.406037 89.434154,81.554312 96.30084,73.203205 98.846858,70.82153 109.67723,60.690247 126.05768,51.779135 141.99598,47.348023 c 5.90356,-1.641286 18.65609,-1.525188 27.42717,0.249695 7.13079,1.442959 15.38373,5.066786 22.81942,10.019905 5.64159,3.758016 12.64699,10.61248 16.00549,15.660647 5.57929,8.386253 9.05155,17.969935 10.81005,29.8365 0.63749,4.30185 0.64985,23.60408 0.0175,27.27373 -0.5649,3.27805 -0.99718,4.18913 -1.70777,3.59939 -0.72535,-0.60197 -1.37549,-3.00959 -3.22548,-11.94455 -4.66201,-22.516314 -6.59095,-27.081249 -14.75411,-34.91645 -11.86324,-11.386625 -26.88019,-18.684725 -40.94831,-19.900501 -6.66302,-0.575823 -8.24131,-0.914716 -11.1308,-2.390035 -1.42035,-0.725207 -2.67774,-1.223281 -2.79419,-1.106832 -0.33274,0.332742 0.62414,1.899133 4.09698,6.706676 6.90254,9.555356 10.03183,18.574239 10.02824,28.902221 -0.003,8.841831 -2.12778,16.486901 -6.35545,22.868031 -3.11671,4.70429 -13.49939,14.65832 -15.28954,14.65832 -0.62536,0 -0.6212,-0.0915 0.0776,-1.7079 1.58983,-3.67736 2.39128,-10.29746 1.59837,-13.20282 -0.83129,-3.04596 -1.82992,-1.46907 -3.0839,4.86965 -1.14051,5.76518 -1.90502,8.0842 -3.36432,10.20522 -1.39145,2.02241 -3.3378,3.15957 -6.99411,4.08636 -3.3011,0.83675 -6.28075,1.92757 -10.29504,3.76889 -1.54822,0.71016 -2.87938,1.22675 -2.95814,1.14799 -0.0788,-0.0788 0.45086,-0.84775 1.17693,-1.70887 3.01168,-3.57182 8.85843,-13.38796 10.37656,-17.42125 1.08427,-2.88065 1.52139,-7.67293 1.55076,-17.00156 0.0198,-6.28263 0.28875,-9.52468 0.83556,-10.071489 0.56037,-0.560368 1.97415,1.667799 5.47371,8.626739 2.07888,4.1339 4.24742,8.19922 4.81897,9.03404 1.05843,1.54595 1.94042,1.9304 2.29697,1.00122 0.65506,-1.70705 -3.63274,-10.9268 -8.49396,-18.26399 -4.94863,-7.469099 -12.46053,-14.707088 -13.50675,-13.014249 -0.35792,0.579122 -0.06,1.588075 1.53186,5.187732 2.62207,5.929286 3.63221,11.786727 3.63388,21.071427 l 0.001,7.14286 -1.19509,3.39286 c -2.14083,6.07779 -7.90104,17.14285 -8.92416,17.14285 -0.43141,0 -0.67858,-1.72822 -1.12372,-7.85714 -0.67924,-9.3521 -1.41923,-13.51147 -3.23876,-18.20465 -1.80884,-4.66557 -5.41654,-8.41765 -6.90553,-7.1819 -0.810207,0.67241 -0.72785,1.16463 0.65396,3.90853 2.23748,4.44306 2.52061,6.10037 2.50996,14.69231 -0.009,7.15187 -0.0785,7.97198 -1.01555,11.95616 -1.55834,6.62589 -3.54893,11.61918 -4.32332,10.84479 -0.08689,-0.0869 -0.312446,-1.51742 -0.501242,-3.17896 -0.788525,-6.93954 -4.980193,-15.01292 -7.104247,-13.68317 -1.045461,0.6545 -0.8864,2.08704 0.626364,5.64129 1.870872,4.39563 2.400825,7.8867 2.87749,18.9556 0.941303,21.85846 2.873432,30.38736 10.356055,45.71429 7.35677,15.06912 16.23101,24.5823 24.52058,26.28605 1.90005,0.39051 2.59642,0.36988 5.00816,-0.14838 4.76457,-1.02386 5.82809,-0.67043 3.76708,1.25187 -1.61384,1.50521 -2.37411,1.7176 -6.14845,1.7176 -3.03036,0 -3.64244,0.0947 -3.8336,0.59282 -0.302,0.78699 1.32088,2.07362 3.64276,2.888 1.44636,0.5073 2.82075,0.61243 7.23214,0.55322 4.89912,-0.0658 5.44643,-0.0126 5.44643,0.52905 0,0.83419 -4.09716,4.64252 -6.60114,6.13578 -1.87254,1.11671 -2.40651,1.25488 -5.59228,1.44704 -1.93714,0.11684 -3.69456,0.38493 -3.90537,0.59574 -0.27298,0.27297 0.0385,1.37425 1.082,3.82605 1.62333,3.81401 2.10034,5.57516 1.51005,5.57516 -0.20995,0 -1.55838,-1.1843 -2.99649,-2.63178 -1.76035,-1.77181 -2.99704,-2.71574 -3.78468,-2.88873 -2.20993,-0.48538 -3.08288,1.48436 -1.14813,2.59069 1.44227,0.82472 1.9757,2.27097 1.95092,5.2894 -0.0169,2.05243 -0.21468,2.92129 -1.03379,4.54023 -2.22472,4.39707 -7.4336,8.79963 -8.16284,6.89925 z"
           id="path4103"
           inkscape:connector-curvature="0"
           transform="scale(0.26458333)" />
        <path
           style="fill:#c5cc2e;fill-opacity:1;stroke-width:0.50078738;stroke-linecap:butt;stroke-miterlimit:4;stroke-dasharray:none"
           d="m 115.43458,267.16417 c 0,-0.53982 0.47654,-2.17107 1.05898,-3.625 1.78843,-4.46441 2.02431,-5.72734 1.46069,-7.82048 -0.66487,-2.46911 -2.30808,-4.57303 -3.57165,-4.57303 -1.44006,0 -1.60877,1.04312 -0.68349,4.22596 1.03431,3.55792 0.75197,4.69106 -1.72688,6.93055 -2.74294,2.47808 -5.09667,3.10974 -8.75656,2.34995 l -2.89121,-0.60022 2.68006,-1.60883 c 5.14183,-3.08662 6.16655,-6.7082 2.8626,-10.11701 -1.29507,-1.33618 -2.93969,-2.08611 -8.549619,-3.89859 -7.916475,-2.55768 -17.117745,-6.92971 -23.503613,-11.16787 -9.121919,-6.05402 -25.435185,-22.2814 -31.278618,-31.11394 -3.726175,-5.63223 -10.108944,-18.25197 -11.759307,-23.25 -2.943465,-8.9141 -4.327177,-18.50733 -4.689143,-32.50966 -0.526127,-20.35273 1.339342,-28.54973 10.637143,-46.74034 4.348054,-8.506715 8.015347,-13.61666 11.39313,-15.874999 2.150892,-1.438056 2.823944,-1.625 5.850469,-1.625 5.193482,0 6.283743,0.791375 7.577243,5.5 0.264407,0.9625 0.662444,15.699999 0.884527,32.749999 0.240956,18.49897 0.634839,32.54994 0.97675,34.84353 0.31513,2.11395 1.680245,7.95291 3.033589,12.97548 1.353343,5.02257 2.397545,9.19502 2.320448,9.27212 -0.0771,0.0771 -2.43986,-0.30562 -5.250586,-0.85048 -3.597135,-0.6973 -7.185326,-0.99065 -12.117511,-0.99065 -8.951586,0 -9.678982,0.30851 -10.984299,4.65878 -0.606079,2.01989 0.110605,3.47286 3.713983,7.5295 1.740069,1.95895 6.689731,8.0526 10.999247,13.54145 16.97087,21.6151 23.508813,27.53006 36.790698,33.28505 5.260205,2.27922 9.737049,3.30825 16.363219,3.76118 5.67746,0.38808 10.08578,0.004 11.45638,-0.99826 0.86514,-0.6326 0.84717,-0.74458 -0.3765,-2.346 -0.70675,-0.92494 -4.38502,-5.0567 -8.17392,-9.1817 -14.212894,-15.47367 -19.216999,-22.86369 -25.900764,-38.25 -11.05924,-25.45884 -14.422461,-51.3791 -9.78699,-75.42808 1.39034,-7.21314 5.503915,-19.613509 8.4373,-25.434239 4.294795,-8.522182 12.693295,-18.59705 20.754204,-24.896815 9.62726,-7.523898 23.87014,-14.676879 36.50995,-18.335832 3.55131,-1.028026 5.00718,-1.151779 13.24005,-1.125446 14.56772,0.0466 22.82436,2.199477 34.17744,8.911604 18.88595,11.165679 28.83439,28.284731 30.85422,53.093268 0.75901,9.32242 0.0291,23.26856 -1.31266,25.08197 -0.59766,0.80773 -0.71672,0.73335 -1.38697,-0.86643 -0.40325,-0.9625 -1.77203,-6.5875 -3.04173,-12.5 -2.52568,-11.76111 -4.70241,-19.36384 -6.65444,-23.242194 -4.32228,-8.587625 -17.24531,-19.191721 -30.28338,-24.849267 -6.05653,-2.62808 -12.34614,-4.246591 -19.10248,-4.91566 -6.65996,-0.659525 -7.35929,-0.815779 -10.35838,-2.314406 -1.2971,-0.64816 -2.47835,-1.178472 -2.625,-1.178472 -0.70326,0 -0.005,1.263747 3.04933,5.517077 4.20766,5.859824 7.2221,11.573673 8.95965,16.982923 1.16291,3.620303 1.40039,5.364563 1.60283,11.77249 0.2078,6.577509 0.0994,8.084959 -0.86278,11.999999 -1.91238,7.78119 -4.29648,11.97967 -10.37588,18.27223 -4.98371,5.15845 -9.91092,9.35079 -10.40694,8.85478 -0.12109,-0.1211 0.24356,-1.53955 0.81033,-3.15213 2.16009,-6.14584 1.71242,-16.46196 -0.53235,-12.26757 -0.2884,0.5389 -0.97213,3.21336 -1.51939,5.94325 -1.15294,5.75121 -1.94271,7.84813 -3.77684,10.02786 -1.68855,2.00674 -2.29381,2.31468 -7.53414,3.83327 -2.38195,0.69026 -6.02015,2.03554 -8.08488,2.98951 -2.06473,0.95396 -3.82477,1.66377 -3.91119,1.57735 -0.0864,-0.0864 0.84338,-1.49451 2.06622,-3.12908 3.30428,-4.41685 8.17682,-12.80503 9.34481,-16.08728 0.86389,-2.42768 1.08839,-4.7215 1.41709,-14.479 0.21482,-6.37688 0.54492,-11.84405 0.73356,-12.14928 0.6533,-1.057074 1.77147,0.5893 5.77147,8.49786 4.00878,7.9259 5.62099,10.49574 6.58461,10.49574 1.96077,0 -2.36515,-10.19555 -7.94158,-18.7171 -5.33442,-8.151732 -13.66055,-15.765445 -13.66055,-12.491705 0,0.435156 0.70151,2.389524 1.55892,4.34304 2.53134,5.767441 3.6004,11.910415 3.63125,20.865765 0.0253,7.3373 -0.049,7.9497 -1.39507,11.5 -2.77279,7.31345 -8.02817,16.97716 -8.80043,16.18246 -0.23113,-0.23785 -0.67202,-3.58246 -0.97974,-7.43246 -0.67443,-8.43801 -1.23242,-11.95891 -2.57527,-16.25 -1.67612,-5.35607 -4.82935,-9.5 -7.22882,-9.5 -1.061049,0 -0.782274,1.64752 0.98501,5.82121 3.20957,7.57988 2.53914,22.03028 -1.52581,32.8872 -1.261599,3.36955 -1.995324,3.428 -2.403769,0.19148 -0.88886,-7.04336 -5.20157,-15.42594 -7.276605,-14.1435 -0.791665,0.48928 -0.544285,2.82518 0.55532,5.24361 1.75761,3.86563 2.430895,8.04196 2.952215,18.31232 1.104265,21.75473 2.62973,29.43455 8.479199,42.68768 6.01863,13.63641 14.36199,24.62474 21.68403,28.55817 2.6415,1.41903 3.59717,1.66206 6.58957,1.67578 1.925,0.009 4.47724,-0.17602 5.67165,-0.41078 1.9246,-0.37827 2.15211,-0.32742 2,0.44701 -0.35632,1.81403 -2.72798,2.9338 -6.30542,2.97707 -5.20574,0.063 -5.74912,0.86234 -1.9573,2.87938 1.80742,0.96146 2.86538,1.1131 7.79918,1.11786 3.71066,0.004 5.7725,0.19845 5.89212,0.55686 0.24557,0.73583 -3.00543,3.86002 -6.07183,5.835 -2.02627,1.30506 -3.09171,1.62692 -5.91317,1.78635 -2.3919,0.13515 -3.52561,0.41346 -3.7171,0.91249 -0.15154,0.39491 0.29317,2.1123 0.98826,3.81642 2.39981,5.88354 2.1696,6.47667 -1.17856,3.03661 -2.83204,-2.90977 -4.76356,-3.97189 -5.74374,-3.15841 -0.99495,0.82573 -0.91813,1.10837 0.78591,2.89148 1.30723,1.3679 1.5,1.93545 1.5,4.4163 0,3.60761 -1.40425,6.60861 -4.5798,9.78741 -2.5048,2.50736 -4.4202,3.11121 -4.4202,1.39351 z"
           id="path148"
           inkscape:connector-curvature="0"
           transform="scale(0.26458333)" />
        <g
           id="g524">
          <path
             transform="scale(0.26458333)"
             inkscape:connector-curvature="0"
             id="path79"
             d="m 68.166177,151.3074 c 0.01696,-0.41187 0.100741,-0.49565 0.213605,-0.21361 0.102131,0.25522 0.08957,0.56016 -0.02791,0.67765 -0.117483,0.11748 -0.201045,-0.0913 -0.185693,-0.46404 z"
             style="fill:#00977a;fill-opacity:1;stroke-width:0.35411015;stroke-linecap:butt;stroke-miterlimit:4;stroke-dasharray:none" />
          <path
             transform="scale(0.26458333)"
             inkscape:connector-curvature="0"
             id="path83"
             d="m 68.987672,136.66439 c 0,-3.01404 0.05423,-4.24706 0.120498,-2.74003 0.06627,1.50702 0.06627,3.97305 0,5.48007 -0.06627,1.50703 -0.120498,0.27401 -0.120498,-2.74004 z"
             style="fill:#00977a;fill-opacity:1;stroke-width:0.35411015;stroke-linecap:butt;stroke-miterlimit:4;stroke-dasharray:none" />
          <path
             transform="scale(0.26458333)"
             inkscape:connector-curvature="0"
             id="path335"
             d="m 29.761596,106.44777 c -0.566308,-1.47578 2.316459,-16.922983 4.69019,-25.132224 4.659748,-16.115132 11.865605,-27.48898 25.888406,-40.862703 7.515157,-7.167301 17.806098,-15.276571 20.125109,-15.858606 0.432852,-0.108639 0.481945,-0.06766 0.565419,0.471938 0.05027,0.324999 0.131419,1.823924 0.180321,3.330945 0.09444,2.910544 0.225362,3.700965 0.893024,5.39169 0.625807,1.584729 0.854537,4.056704 0.850565,9.192388 -0.0049,6.345185 -0.473396,11.61981 -1.232024,13.871101 -0.291162,0.86405 -0.406595,0.992656 -1.314646,1.464661 -0.547502,0.284593 -1.263448,0.530197 -1.59099,0.545791 -0.497644,0.02369 -0.605038,-0.03871 -0.653362,-0.379619 -0.0318,-0.224381 0.06763,-0.599443 0.220971,-0.833469 0.246491,-0.376193 0.389434,-1.145048 0.212884,-1.145048 -0.03626,0 -0.438732,0.164913 -0.894395,0.366476 -0.945244,0.418126 -1.229604,0.307013 -1.400452,-0.547218 -0.08475,-0.423764 -0.195843,-0.526365 -0.569921,-0.526365 -0.892888,0 -3.890282,3.46943 -3.517918,4.071928 0.216292,0.349968 0.907409,0.148513 1.792401,-0.522473 1.537266,-1.165527 1.910495,-1.295858 2.090135,-0.729863 0.284936,0.897753 -1.162084,2.335796 -3.490917,3.469262 -2.443034,1.189051 -2.751112,1.063459 -2.161221,-0.881066 0.34058,-1.122689 0.331823,-1.394853 -0.06048,-1.87932 -0.250512,-0.309368 -0.43035,-0.373027 -0.795161,-0.281465 -0.693744,0.174119 -1.291921,1.226082 -1.7029,2.994742 -0.453309,1.950831 -0.755153,2.538257 -1.48248,2.885095 -1.156968,0.55172 -2.817106,-0.306708 -6.475198,-3.348209 -1.264227,-1.051136 -2.705106,-2.184716 -3.201951,-2.519068 -0.853444,-0.574327 -1.574931,-0.785716 -1.574931,-0.461442 0,0.491598 1.528149,2.220159 4.613005,5.217985 1.935297,1.880699 3.518723,3.464284 3.518723,3.519079 0,0.128073 -4.602162,3.786764 -5.684004,4.518747 -1.353164,0.915563 -3.207396,1.798731 -3.778409,1.799652 -0.619694,0.0011 -1.320966,0.432829 -1.320966,0.813424 0,0.878799 -1.944904,3.30155 -6.372273,7.937885 -7.367622,7.715366 -13.434545,16.20442 -13.973748,19.552559 -0.272949,1.69486 -1.2637,3.95291 -2.00395,4.56727 -0.226875,0.18829 -0.292886,0.17565 -0.388861,-0.0745 z m 7.42882,-17.909418 c 2.016701,-3.979769 3.141614,-8.368335 2.319855,-9.050336 -0.217551,-0.180549 -0.292858,-0.137094 -0.441942,0.255029 -0.09884,0.259964 -0.181453,0.72602 -0.183589,1.03568 -0.0021,0.309658 -0.155682,0.897389 -0.341216,1.306065 -0.259217,0.570981 -0.470158,0.777469 -0.910909,0.891679 -0.96943,0.251203 -1.294938,1.134102 -1.369485,3.714556 -0.03444,1.192016 -0.01713,2.285821 0.03846,2.430679 0.177765,0.463249 0.448527,0.285544 0.88883,-0.583352 z M 41.308998,75.58322 c 0.232619,-0.668525 0.138854,-1.582883 -0.238832,-2.329013 -0.484169,-0.956489 -0.76733,-0.506534 -0.76733,1.219322 0,1.792947 0.555313,2.405399 1.006162,1.109691 z m 6.688663,-3.525369 c 0.74226,-0.458742 1.180102,-1.133533 1.110574,-1.711589 -0.113029,-0.93971 -1.487291,-0.818651 -2.528695,0.222755 -0.586421,0.586421 -0.824358,1.405289 -0.501998,1.727649 0.243943,0.243945 1.364502,0.104574 1.920119,-0.238815 z m 8.510876,-2.339178 c 1.378088,-1.265364 1.837675,-2.932404 1.186662,-4.304313 -0.558272,-1.17647 -1.075356,-0.654715 -2.026095,2.044398 -0.796941,2.262485 -0.880561,3.011216 -0.3363,3.011216 0.196627,0 0.725708,-0.338086 1.175733,-0.751301 z M 44.328091,68.171635 c 0.709494,-0.43258 1.774457,-2.047769 2.50119,-3.79346 0.869006,-2.08745 0.769971,-2.217321 -0.955177,-1.252564 -1.668941,0.933324 -3.096394,2.639115 -3.096394,3.700154 0,0.788247 0.46814,1.686674 0.883883,1.696298 0.04861,0.0011 0.348538,-0.156568 0.666498,-0.350428 z m 21.010978,-5.519962 c 0.846569,-0.580079 1.504813,-1.690604 1.443152,-2.434747 -0.0444,-0.535816 -0.119485,-0.626511 -0.560375,-0.676871 -0.426797,-0.04875 -0.686507,0.123662 -1.606377,1.066428 -1.149538,1.178151 -1.504934,1.928701 -1.128205,2.38263 0.279152,0.336357 1.081957,0.190069 1.851805,-0.33744 z M 63.234763,58.4166 c 1.134841,-0.558682 2.606214,-1.937837 2.4736,-2.31857 -0.148617,-0.426664 -1.475315,-0.206056 -2.53073,0.420821 -1.262842,0.750079 -2.545477,1.941542 -2.545477,2.36454 0,0.274877 0.101383,0.30185 0.746717,0.198656 0.410695,-0.06567 1.245845,-0.365125 1.85589,-0.665447 z M 49.622134,58.27777 c 1.244909,-0.759056 2.701517,-2.701339 2.701517,-3.602283 0,-0.377266 -0.396031,-0.541004 -0.963834,-0.398495 -0.650685,0.163311 -2.496278,1.960197 -2.926819,2.849578 -0.654901,1.352842 -0.0701,1.918989 1.189136,1.1512 z m 20.909517,-0.889272 c 0.352567,-0.352567 0.481131,-1.406385 0.246252,-2.018473 -0.386001,-1.005905 -2.391603,0.840771 -2.114071,1.94655 0.09043,0.360315 0.214565,0.425477 0.810527,0.425477 0.468037,0 0.822154,-0.118416 1.057292,-0.353554 z m 8.127913,-2.644522 c 0.352284,-0.658248 0.408312,-1.841103 0.119903,-2.531363 -0.335067,-0.801928 -0.962325,-0.888239 -1.626724,-0.223838 -0.635237,0.635234 -0.592459,1.591285 0.109292,2.442631 0.599826,0.727691 1.113836,0.842654 1.397529,0.31257 z m -6.669505,-1.441459 c 0.613266,-0.738642 0.182592,-2.015284 -0.967165,-2.866952 -0.670083,-0.496357 -1.309459,-0.205999 -1.473651,0.669225 -0.285928,1.524121 0.509994,2.883426 1.568651,2.679007 0.309543,-0.05977 0.702017,-0.276346 0.872165,-0.48128 z M 56.290188,49.18052 c 1.175196,-0.353683 2.113822,-1.02096 2.458826,-1.748002 0.367821,-0.775127 0.22692,-1.180951 -0.410028,-1.180951 -0.562915,0 -1.105484,0.375436 -2.523995,1.746502 -1.454937,1.406275 -1.326926,1.72481 0.475197,1.182451 z m 21.466793,-1.422402 c 1.044878,-1.133558 0.94624,-2.036881 -0.222418,-2.036881 -0.804433,0 -1.346058,0.611932 -1.346058,1.52079 0,0.695086 0.326606,1.307637 0.69722,1.307637 0.0779,0 0.469964,-0.356197 0.871256,-0.791546 z m 2.32953,-4.964443 c 0.30891,-0.372214 0.02519,-0.934602 -0.757561,-1.501622 -0.844575,-0.611807 -1.458466,-0.667334 -1.73178,-0.156642 -0.387703,0.724429 0.15142,1.807776 0.977821,1.964894 0.552367,0.105016 1.294898,-0.04562 1.51152,-0.30663 z m -8.140646,-0.500137 c 0,-1.253907 -4.451812,-5.614445 -5.085258,-4.980998 -0.386909,0.386909 2.362113,3.910883 3.787209,4.854827 0.995052,0.659096 1.298049,0.688547 1.298049,0.126171 z m 3.072727,-2.570499 c 1.041248,-0.644823 1.553593,-2.019345 1.002654,-2.689929 l -0.341674,-0.415873 -0.668138,0.353553 c -0.822289,0.435124 -1.474579,1.36943 -1.474579,2.112107 0,0.99004 0.540007,1.223334 1.481737,0.640142 z m -3.438924,-3.452818 c 0.848783,-0.438922 0.982635,-1.439102 0.285843,-2.135893 -0.858493,-0.858495 -2.39452,-0.25648 -2.39452,0.938484 0,0.555274 0.254707,0.956119 0.795495,1.251907 0.476807,0.260793 0.723255,0.250565 1.313182,-0.0545 z m 4.386693,-2.613994 c 0.276989,-0.350353 0.378441,-1.224091 0.197419,-1.700219 -0.226641,-0.59611 -0.665321,-0.894921 -1.32365,-0.901615 -1.179254,-0.01199 -1.214956,1.008175 -0.07517,2.147961 0.723587,0.723588 0.927315,0.800553 1.201401,0.453873 z"
             style="fill:#ee7e22;fill-opacity:1;stroke-width:0.17705508;stroke-linecap:butt;stroke-miterlimit:4;stroke-dasharray:none" />
          <path
             transform="scale(0.26458333)"
             inkscape:connector-curvature="0"
             id="path337"
             d="M 87.892383,54.250712 C 87.458216,52.783199 87.303159,51.05041 87.144951,45.898013 86.917046,38.475809 86.541666,34.394344 85.651039,29.654858 c -0.907461,-4.829064 -0.815537,-5.747808 0.721719,-7.213317 1.832355,-1.746836 3.724297,-2.307093 5.283708,-1.564654 1.112167,0.529504 4.038893,3.612889 6.634766,6.989903 3.296408,4.288358 7.075728,8.784505 10.087168,12.000433 3.12243,3.334458 4.11113,4.441303 4.02619,4.507355 -0.0359,0.02791 -1.05962,0.395101 -2.27496,0.815977 -3.49559,1.210535 -6.61583,2.600387 -13.029996,5.803975 -5.997712,2.995587 -8.041094,3.919095 -8.671511,3.919095 -0.239727,0 -0.3973,-0.194978 -0.53574,-0.662913 z m 5.691502,-3.623922 c 0.31143,-0.315988 0.681336,-0.740214 0.822011,-0.94272 0.729882,-1.050694 3.139448,-2.416168 7.467814,-4.231926 1.38189,-0.579708 2.40673,-1.107466 2.36446,-1.217621 -0.29601,-0.77139 -9.259205,-15.858073 -9.664704,-16.26745 -0.718951,-0.725827 -2.26157,-0.851076 -3.442308,-0.27949 -1.43534,0.694836 -1.667618,1.657412 -1.173675,4.86379 0.495037,3.213477 0.698168,5.750636 0.820882,10.253048 0.146071,5.359397 0.427248,7.15448 1.265795,8.081064 0.422736,0.467118 0.904087,0.386245 1.539725,-0.258695 z"
             style="fill:#ee7e22;fill-opacity:1;stroke-width:0.17705508;stroke-linecap:butt;stroke-miterlimit:4;stroke-dasharray:none" />
          <path
             transform="scale(0.26458333)"
             inkscape:connector-curvature="0"
             id="path339"
             d="m 158.93426,242.91323 c -4.36782,-1.97745 -8.64282,-3.41138 -9.5,-3.18651 -1.32214,0.34684 -1.55851,-0.89428 -1.55851,-8.18345 0,-8.14917 -0.11603,-8.60877 -2.25,-8.91184 -1.37931,-0.19589 -2.25,-1.0144 -2.25,-2.11514 0,-2.33156 -3.73362,-7.06531 -5.57258,-7.06531 -1.73712,0 -1.85032,2.34997 -0.23758,4.93237 0.93311,1.49414 0.90669,2.2464 -0.12245,3.48643 -0.72175,0.86966 -1.64718,1.5812 -2.05651,1.5812 -1.0686,0 -4.69936,-9.10152 -6.19216,-15.52241 -0.70042,-3.01268 -1.62117,-5.47759 -2.0461,-5.47759 -2.1208,0 0.88485,17.05249 3.13802,17.80355 1.25219,0.41739 1.50202,4.19645 0.27742,4.19645 -0.44657,0 -1.81004,-1.35 -3.02994,-3 -2.16553,-2.92904 -5.15812,-4.05514 -5.15812,-1.94098 0,0.58246 -0.47185,0.76739 -1.04856,0.41097 -0.71315,-0.44076 -0.66274,-1.11293 0.15762,-2.1014 1.74223,-2.09926 -0.41774,-4.18722 -2.52363,-2.43949 -1.26431,1.04928 -2.03327,0.4078 -4.90561,-4.09238 -4.75447,-7.44898 -8.19885,-14.47209 -10.61471,-21.64344 -2.615,-7.7625 -2.65194,-10.19328 -0.15491,-10.19328 1.05061,0 4.18738,-1.8 6.97059,-4 2.7832,-2.2 5.53961,-4 6.12533,-4 0.58573,0 1.9204,1.99566 2.96593,4.4348 1.12224,2.61807 3.05353,5.05959 4.71447,5.95996 l 2.81348,1.52516 -3.12427,0.04 c -1.71835,0.0221 -5.03743,-0.63492 -7.37573,-1.45992 -2.3383,-0.825 -5.54487,-1.5 -7.12573,-1.5 -8.18641,0 2.77102,5.76198 12.72509,6.69151 8.26404,0.77171 18.43853,-2.25228 23.65529,-7.03064 6.34561,-5.81236 4.24451,-7.87451 -2.68279,-2.63305 -5.12415,3.87713 -5.79444,3.74914 -3.91556,-0.74766 0.95953,-2.29646 1.36965,-5.35761 1.07181,-8 -0.26534,-2.35409 -0.20021,-4.27786 0.14473,-4.27504 0.34494,0.003 2.42716,1.11377 4.62716,2.46879 4.06863,2.50593 7.5,3.25154 7.5,1.62968 0,-1.26287 -6.4201,-6.75236 -10.15722,-8.68489 -3.74615,-1.93722 -7.7088,-2.0397 -15.08034,-0.39002 -6.8201,1.52627 -7.75165,1.2209 -9.14553,-2.99794 -0.6143,-1.85929 -1.67941,-3.56433 -2.36691,-3.78897 -1.76146,-0.57556 -1.57475,3.61177 0.32336,7.25205 1.50724,2.89066 1.46827,3.07362 -1.13074,5.30919 -1.48047,1.27345 -3.26636,2.09486 -3.96865,1.82537 -0.70229,-0.2695 -1.50351,0.3766 -1.78049,1.43577 -0.6304,2.41063 -3.62735,3.66088 -4.6826,1.95345 -1.16026,-1.87734 -3.01088,-0.279 -3.01088,2.60043 0,1.41203 -0.43519,2.23104 -1,1.88197 -0.549999,-0.33992 -0.999999,-3.1623 -0.999999,-6.27196 0,-5.56639 0.08643,-5.73565 5.583549,-10.93394 5.35307,-5.06208 9.82103,-7.57244 29.44011,-16.54116 9.9051,-4.52805 18.62688,-12.56486 22.75434,-20.96733 3.68134,-7.49427 5.70349,-18.03184 4.85145,-25.281321 -0.9395,-7.993729 -4.3687,-18.040959 -7.37825,-21.617604 l -2.69671,-3.204865 5.97275,0.567814 c 13.9463,1.325838 29.61313,8.673405 38.92637,18.256024 4.47163,4.600968 9.91172,14.094192 8.95955,15.634852 -0.29216,0.47272 -1.96714,0.86388 -3.72218,0.86925 -3.68253,0.0113 -12.53122,3.87445 -14.5986,6.37348 -2.79413,3.37753 0.24862,3.91949 6.71799,1.19657 8.55187,-3.59943 12.27722,-3.75585 13.80949,-0.57981 2.88997,5.99022 2.36409,7.23978 -4.6293,11 -3.5802,1.925 -7.76817,4.35594 -9.30661,5.4021 -6.54196,4.4486 -11.4821,15.82644 -10.09109,23.24118 0.67548,3.60062 2.68299,4.08372 3.21569,0.77385 0.70294,-4.36762 0.98964,-4.57286 4.12383,-2.9521 1.63256,0.84423 3.89065,1.53497 5.01796,1.53497 2.8969,0 2.53329,1.2176 -0.95666,3.20349 -6.24394,3.55298 -1.7185,4.64029 5.08147,1.2209 3.24577,-1.63214 9.70946,-8.72768 10.96948,-12.04177 1.44288,-3.79508 1.14744,-9.6634 -0.61305,-12.17685 -2.22468,-3.17617 -3.27033,-1.95479 -2.69516,3.14811 0.57613,5.1114 -1.1906,7.12522 -2.13005,2.42796 -0.35043,-1.75213 -1.59998,-4.21059 -2.77679,-5.46325 l -2.13965,-2.27755 4.36078,-1.95238 c 2.39843,-1.07381 4.70453,-1.73993 5.12468,-1.48027 0.42014,0.25966 1.70902,3.64566 2.86417,7.52443 1.15514,3.87877 4.75519,13.31108 8.00011,20.96068 3.24541,7.6508 6.64668,17.59421 7.55981,22.10068 2.90895,14.35628 0.65462,28.31266 -7.20462,44.60305 -5.16324,10.70223 -10.16329,16.75443 -15.97243,19.3335 -4.52939,2.0109 -18.67415,4.45623 -30.92243,5.34583 -7.63772,0.55473 -8.35962,0.41823 -15.94149,-3.01431 z m 42.43263,-24.75211 c 1.37013,-0.6932 2.65238,-2.09758 2.84944,-3.12084 0.28984,-1.50504 -0.0906,-1.75048 -1.99114,-1.28471 -1.29219,0.31667 -4.59944,1.10525 -7.34944,1.75239 -5.76314,1.35622 -5.92398,1.44799 -5.04112,2.87649 0.9049,1.46415 8.48717,1.31731 11.53226,-0.22333 z m -5.02489,-8.01658 c 1.95616,-0.67358 3.98607,-2.2827 4.65943,-3.69356 0.65625,-1.375 1.96019,-4.09266 2.89766,-6.03925 2.53565,-5.26514 1.74777,-7.39586 -2.8756,-7.77672 -5.55386,-0.4575 -11.56843,2.77438 -19.33495,10.38951 -5.28619,5.18313 -6.39525,6.76192 -5.25631,7.48253 2.06013,1.30343 15.79808,1.05329 19.90977,-0.36251 z m -67.40705,-14.23976 c 0.64995,-4.33416 0.15645,-6.50278 -1.17647,-5.16986 -0.3395,0.33949 -0.84802,2.66449 -1.13005,5.16666 -0.68315,6.06089 1.39768,6.06378 2.30652,0.003 z m -20.5592,-9.98518 c 0,-1.51309 -2.63652,-3.16543 -3.56667,-2.23529 -0.26422,0.26423 -0.19667,1.21982 0.15012,2.12354 0.79561,2.07333 3.41655,2.15905 3.41655,0.11175 z m 85.94549,-0.43945 c 1.77455,-0.94971 5.05451,-7.72351 5.05451,-10.43862 0,-0.75294 -0.84842,-2.41674 -1.88538,-3.69733 -1.64748,-2.03456 -2.09694,-2.15279 -3.56194,-0.93694 -2.14592,1.78096 -8.55268,11.40497 -8.55268,12.84754 0,2.60298 5.62515,4.00235 8.94549,2.22535 z m -90.12216,-18.69631 c -0.48656,-2.50877 -2.82333,-2.85324 -2.82333,-0.4162 0,1.22834 0.64569,2.08334 1.57333,2.08334 0.93123,0 1.44137,-0.68037 1.25,-1.66714 z"
             style="fill:#8cc0d9;fill-opacity:1;stroke-width:1.00157475;stroke-linecap:butt;stroke-miterlimit:4;stroke-dasharray:none" />
          <path
             transform="scale(0.26458333)"
             inkscape:connector-curvature="0"
             id="path341"
             d="m 96.862694,236.65221 c -7.129316,-2.46526 -14.188448,-6.81686 -20.066166,-12.36977 -4.433193,-4.18822 -5.020534,-5.19842 -4.617802,-7.94241 0.347893,-2.37034 0.121346,-3.02547 -0.920777,-2.66271 -0.760209,0.26463 -1.257433,1.33446 -1.104943,2.3774 0.319412,2.18459 0.893425,2.78118 -7.837136,-8.14538 -7.393937,-9.25374 -12.261656,-16.47016 -11.573719,-17.1581 0.818247,-0.81824 16.595445,4.32454 20.315096,6.62198 1.749823,1.08077 5.473381,5.36147 8.274574,9.51265 6.688271,9.91159 12.920265,17.64731 20.394184,25.31511 6.704795,6.87872 6.241165,7.59948 -2.863311,4.45123 z"
             style="fill:#8cc0d9;fill-opacity:1;stroke-width:1.00157475;stroke-linecap:butt;stroke-miterlimit:4;stroke-dasharray:none" />
          <path
             transform="scale(0.26458333)"
             inkscape:connector-curvature="0"
             id="path349"
             d="m 66.377708,190.04113 c -5.105289,-2.37168 -7.524741,-2.96735 -14.445697,-3.55653 -5.786328,-0.49259 -7.474614,-0.88535 -7.474614,-1.73889 0,-1.06444 2.346186,-1.37383 8.807154,-1.1614 7.96912,0.26203 11.910791,1.12878 15.348202,3.375 1.934955,1.26442 3.650671,5.02713 2.27276,4.98436 -0.243068,-0.008 -2.27158,-0.86369 -4.507805,-1.90254 z"
             style="fill:#5cb2a5;fill-opacity:1;stroke-width:0.35411015;stroke-linecap:butt;stroke-miterlimit:4;stroke-dasharray:none" />
          <path
             transform="scale(0.26458333)"
             inkscape:connector-curvature="0"
             id="path351"
             d="M 109.21977,235.91071 C 103.71575,230.93686 95.108626,220.91344 89.9964,213.52414 80.468269,199.75202 73.444377,183.37883 69.975971,166.85509 67.311567,154.16168 66.890046,147.00483 67.445926,123.89836 68.10946,96.316965 67.372957,90.088093 62.770048,84.35276 c -0.932603,-1.162045 -1.695641,-2.376242 -1.695641,-2.698216 0,-0.321974 0.397747,-0.931242 0.883883,-1.353933 1.056583,-0.918687 1.187313,-2.187417 0.225392,-2.187417 -0.36217,0 -1.27699,0.492793 -2.032932,1.095092 -1.891359,1.506951 -3.097763,2.086888 -4.341221,2.086888 -2.348431,0 -2.018332,-0.373366 5.441654,-6.154892 5.090346,-3.945042 8.637759,-6.165942 17.914293,-11.215456 4.213685,-2.293643 10.020799,-5.554873 12.904698,-7.247178 5.551485,-3.257675 11.355446,-6.137139 17.402056,-8.633519 4.0506,-1.672313 6.93328,-3.419873 6.93328,-4.20314 0,-0.27932 -0.51707,-0.641842 -1.14905,-0.805604 -1.39517,-0.361526 -1.48292,-0.887368 -0.20173,-1.208926 1.3349,-0.33504 14.48396,0.13593 20.69549,0.741267 5.93164,0.578061 7.70213,0.863308 7.70213,1.240908 0,0.145737 -1.15347,0.617323 -2.56327,1.047968 -9.09363,2.777803 -13.62351,4.550955 -20.7567,8.124898 -8.23531,4.126136 -16.15509,9.139702 -20.571799,13.022855 -5.084904,4.470625 -4.977218,4.47909 -11.249774,-0.884248 -3.671235,-3.139083 -4.607954,-2.102743 -2.352785,2.603006 1.504434,3.139226 2.713745,4.1698 4.548683,3.876382 1.232469,-0.197081 1.326847,-0.150078 1.326847,0.660817 0,0.596597 -0.418547,1.185587 -1.321986,1.860333 -2.235838,1.669866 -4.220087,3.924652 -6.837057,7.769238 -4.321241,6.34832 -5.528438,7.102357 -8.104413,5.062145 -1.653953,-1.309954 -1.909523,-1.324036 -1.604102,-0.08839 0.350787,1.419181 1.841395,2.816311 3.295865,3.089169 l 1.268842,0.238037 -1.088101,0.688938 c -1.462729,0.926133 -1.882806,2.13332 -1.783081,5.124088 0.08473,2.540985 -0.330725,3.676079 -1.345471,3.676079 -0.353339,0 -0.384814,-0.270384 -0.133486,-1.146716 0.559315,-1.950214 0.392157,-3.277942 -0.539208,-4.282899 -0.477445,-0.515174 -0.976005,-1.532775 -1.107912,-2.261338 -0.131907,-0.728561 -0.479236,-1.801956 -0.771843,-2.385319 -1.663416,-3.31631 -7.156663,-8.001836 -7.150145,-6.098796 8.49e-4,0.243068 0.486856,1.157887 1.080052,2.032932 1.696185,2.502104 3.115164,5.457941 3.510566,7.312767 0.199652,0.936563 0.445785,2.066446 0.546961,2.510845 0.101177,0.444399 0.572264,0.955633 1.046861,1.136076 0.853206,0.324389 0.856867,0.345104 0.325797,1.84365 -1.720803,4.855669 -2.927408,36.487779 -1.912174,50.129169 2.34137,31.46026 13.242726,56.21672 35.802623,81.30604 5.05478,5.62152 7.1292,8.10557 6.93287,8.30191 -0.0853,0.0853 -1.31164,-0.89012 -2.72524,-2.16756 z M 68.386992,151.23245 c -0.112864,-0.28204 -0.196641,-0.19826 -0.213605,0.21361 -0.01535,0.3727 0.06821,0.58152 0.185693,0.46404 0.117483,-0.11748 0.130043,-0.42243 0.02791,-0.67765 z M 78.752076,84.143068 c 0,-0.183749 -0.717848,-1.006909 -1.595217,-1.829246 -0.952307,-0.892574 -1.758559,-2.040346 -2.000507,-2.847894 -0.255879,-0.854044 -0.619267,-1.352734 -0.985722,-1.352734 -0.763731,0 -1.428961,0.690808 -1.428961,1.483906 0,0.770506 2.249394,3.332396 3.71231,4.228042 1.142001,0.69917 2.298097,0.859107 2.298097,0.317926 z m 4.028114,-8.656989 c 0.244075,-0.97247 -0.28902,-2.676186 -0.837382,-2.676186 -0.396093,0 -0.50806,2.918374 -0.126602,3.299831 0.43873,0.438731 0.747477,0.238989 0.963984,-0.623645 z"
             style="fill:#5cb2a5;fill-opacity:1;stroke-width:0.35411015;stroke-linecap:butt;stroke-miterlimit:4;stroke-dasharray:none" />
          <path
             transform="scale(0.26458333)"
             inkscape:connector-curvature="0"
             id="path359"
             d="m 99.233915,156.07894 c 0,-0.0626 0.792565,-1.16952 1.761265,-2.45975 1.83113,-2.43893 3.11684,-3.71479 4.72659,-4.6904 1.72642,-1.04632 3.03532,-0.64835 1.88117,0.57197 -0.8639,0.91343 -8.369025,6.81257 -8.369025,6.57818 z"
             style="fill:#93b63d;fill-opacity:1;stroke-width:0.17705508;stroke-linecap:butt;stroke-miterlimit:4;stroke-dasharray:none" />
        </g>
      </g>
    </g>
  </g>
</svg>
